<svg width="51" height="31" viewBox="0 0 51 31" fill="none" xmlns="http://www.w3.org/2000/svg">
<g clip-path="url(#clip0_46_1010)">
<path d="M36.0664 4.56664H41.1391V6.36626H34.6367V5.98284C34.6367 5.20362 35.2763 4.56664 36.0726 4.56664H36.0664Z" fill="#1E1E1E"/>
<path d="M41.0139 6.78062L42.9326 2.11766C41.9983 1.74661 40.9324 2.18569 40.5561 3.10715L39.3271 6.10035L41.0201 6.78062H41.0139Z" fill="#1E1E1E"/>
<path d="M33.7402 8.49367C31.3324 8.49367 29.3823 10.417 29.3823 12.7918V22.3156H42.7006V8.49367H33.7402Z" fill="#282828"/>
<path d="M36.7517 13.9911L36.5762 11.9204L30.665 12.4079L30.8406 14.4786L36.7517 13.9911Z" fill="#161616"/>
<path d="M14.0384 8.49366H7.87459C5.94959 8.49366 4.39453 10.0335 4.39453 11.9259V22.3094H18.3963V12.7856C18.3963 10.4108 16.4462 8.48747 14.0384 8.48747V8.49366Z" fill="#282828"/>
<path d="M18.72 9.82833L16.3608 7.50232L8.39464 15.3619L10.7539 17.6879L18.72 9.82833Z" fill="#161616"/>
<path d="M23.0291 1.46318L21.9204 0.370132L15.5944 6.61143L16.7031 7.70448L23.0291 1.46318Z" fill="#474747"/>
<path d="M27.4384 13.4535C29.4324 13.4535 31.0439 15.0428 31.0439 17.0094C31.0439 17.0527 31.0439 17.1022 31.0376 17.1455H32.856V12.7917C32.856 11.5487 33.3953 10.4293 34.2543 9.64394C33.1006 9.35947 31.9656 9.03788 30.8433 8.68538L26.0088 13.4535H27.4447H27.4384Z" fill="#FFCF40"/>
<path d="M31.0374 17.1455C30.9621 19.0441 29.382 20.5654 27.4382 20.5654H23.9267C21.9328 20.5654 20.3213 18.976 20.3213 17.0094C20.3213 15.0428 21.9328 13.4535 23.9267 13.4535H26.0022L30.8367 8.68537C27.156 7.52273 23.6509 5.97665 20.3714 4.08426L15.606 8.78432C17.2363 9.40893 18.3963 10.9612 18.3963 12.7917V22.3156H32.8558V17.1455H31.0374Z" fill="#474747"/>
<path d="M2.68303 11.8641V22.3217H4.39484V11.9383C4.39484 10.9426 4.82123 10.0521 5.5047 9.42749L4.17538 8.11642C3.24109 9.1121 2.67676 10.4355 2.67676 11.8703L2.68303 11.8641Z" fill="#474747"/>
<path d="M18.3965 4.08426L7.10983 6.45903C5.94981 6.7064 4.94028 7.29391 4.17529 8.10405L5.50461 9.41512C6.12538 8.84616 6.95934 8.49366 7.87482 8.49366H14.0386C14.5904 8.49366 15.1171 8.59879 15.6062 8.78432L20.3717 4.08426H18.3902H18.3965Z" fill="#FFCF40"/>
<path d="M46.1742 8.49366V6.58271C46.1742 5.5623 45.2336 4.79545 44.2178 4.98098C41.0137 5.57467 37.7092 5.89007 34.3294 5.89007C29.5389 5.89007 24.8925 5.25927 20.4782 4.08426H20.3716C24.6543 6.54561 29.3194 8.438 34.2542 9.64394C35.0317 8.93274 36.0663 8.49366 37.2075 8.49366H46.1679H46.1742Z" fill="#353535"/>
<path d="M44.9831 7.44234H37.2141C34.1479 7.44234 31.6648 9.89132 31.6648 12.9154V21.1529H19.588V12.9154C19.588 9.89132 17.105 7.44234 14.0388 7.44234H7.82481C5.27903 7.44234 3.20981 9.47078 3.19727 11.9816V22.4392H4.39491V12.0002C4.39491 10.1325 5.93115 8.61735 7.82481 8.61735H14.0388C16.4466 8.61735 18.3967 10.5407 18.3967 12.9154V22.3279H32.8562V12.9154C32.8562 10.5407 34.8062 8.61735 37.2141 8.61735H46.1744V7.44234H44.9831Z" fill="#6C6C6C"/>
<path d="M13.5371 22.0496C13.5371 24.7583 11.3111 26.9538 8.5647 26.9538C5.81827 26.9538 3.59229 24.7583 3.59229 22.0496C3.59229 19.3409 5.81827 17.1455 8.5647 17.1455C11.3111 17.1455 13.5371 19.3409 13.5371 22.0496Z" fill="#474747"/>
<path d="M8.96577 16.3786H8.16943V27.096H8.96577V16.3786Z" fill="#A8A8A8"/>
<path d="M6.03675 16.9459L5.34717 17.3387L10.7821 26.6193L11.4717 26.2264L6.03675 16.9459Z" fill="#A8A8A8"/>
<path d="M3.79124 18.8707L3.39307 19.5509L12.8038 24.9095L13.202 24.2294L3.79124 18.8707Z" fill="#A8A8A8"/>
<path d="M2.8208 21.6538V22.4392H13.6874V21.6538H2.8208Z" fill="#A8A8A8"/>
<path d="M3.38479 24.5391L3.78271 25.2194L13.1953 19.8639L12.7974 19.1836L3.38479 24.5391Z" fill="#A8A8A8"/>
<path d="M5.34411 26.7591L6.03369 27.152L11.4686 17.8714L10.779 17.4786L5.34411 26.7591Z" fill="#A8A8A8"/>
<path d="M8.56435 17.7887C10.9471 17.7887 12.8846 19.6996 12.8846 22.0496C12.8846 24.3997 10.9471 26.3106 8.56435 26.3106C6.1816 26.3106 4.24406 24.3997 4.24406 22.0496C4.24406 19.6996 6.1816 17.7887 8.56435 17.7887ZM8.56435 14.8511C4.53249 14.8511 1.26562 18.0731 1.26562 22.0496C1.26562 26.0261 4.53249 29.2482 8.56435 29.2482C12.5962 29.2482 15.8631 26.0261 15.8631 22.0496C15.8631 18.0731 12.5962 14.8511 8.56435 14.8511Z" fill="#003948"/>
<path d="M10.8156 22.0496C10.8156 23.2741 9.80608 24.2698 8.56454 24.2698C7.32301 24.2698 6.31348 23.2741 6.31348 22.0496C6.31348 20.8251 7.32301 19.8295 8.56454 19.8295C9.80608 19.8295 10.8156 20.8251 10.8156 22.0496Z" fill="#B9B9B9"/>
<g style="mix-blend-mode:overlay" opacity="0.41">
<path d="M6.31348 22.0496C6.31348 23.2741 7.32301 24.2698 8.56454 24.2698V19.8295C7.32301 19.8295 6.31348 20.8251 6.31348 22.0496Z" fill="white"/>
</g>
<path d="M42.7255 7.44234H37.2139V8.61735H42.7255V7.44234Z" fill="#B3211B"/>
<path d="M44.9695 13.8285L44.6909 10.5499L35.3182 11.3246L35.5968 14.6031L44.9695 13.8285Z" fill="#1E1E1E"/>
<g style="mix-blend-mode:overlay" opacity="0.75">
<path d="M44.6945 10.5468L35.3203 11.3261L35.4645 12.9958L44.8325 12.1857L44.6945 10.5468Z" fill="white"/>
</g>
<g style="mix-blend-mode:overlay" opacity="0.74">
<path d="M44.7634 11.4683L35.3892 12.2475L35.4644 12.9958L44.8323 12.1857L44.7634 11.4683Z" fill="white"/>
</g>
<path d="M46.9019 22.0496C46.9019 24.7583 44.6759 26.9538 41.9294 26.9538C39.183 26.9538 36.957 24.7583 36.957 22.0496C36.957 19.3409 39.183 17.1455 41.9294 17.1455C44.6759 17.1455 46.9019 19.3409 46.9019 22.0496Z" fill="#474747"/>
<path d="M42.3305 16.3786H41.5342V27.096H42.3305V16.3786Z" fill="#A8A8A8"/>
<path d="M39.4044 16.9363L38.7148 17.3293L44.1514 26.6089L44.8409 26.216L39.4044 16.9363Z" fill="#A8A8A8"/>
<path d="M37.1496 18.8691L36.7515 19.5493L46.1622 24.908L46.5604 24.2278L37.1496 18.8691Z" fill="#A8A8A8"/>
<path d="M36.1792 21.6538V22.4392H47.0458V21.6538H36.1792Z" fill="#A8A8A8"/>
<path d="M36.7534 24.5441L37.1514 25.2244L46.564 19.869L46.1661 19.1887L36.7534 24.5441Z" fill="#A8A8A8"/>
<path d="M38.7109 26.7525L39.4004 27.1454L44.837 17.8658L44.1474 17.4728L38.7109 26.7525Z" fill="#A8A8A8"/>
<path d="M41.9291 17.7887C44.3118 17.7887 46.2494 19.6996 46.2494 22.0496C46.2494 24.3997 44.3118 26.3106 41.9291 26.3106C39.5463 26.3106 37.6088 24.3997 37.6088 22.0496C37.6088 19.6996 39.5463 17.7887 41.9291 17.7887ZM41.9291 14.8511C37.8972 14.8511 34.6304 18.0731 34.6304 22.0496C34.6304 26.0261 37.8972 29.2482 41.9291 29.2482C45.9609 29.2482 49.2278 26.0261 49.2278 22.0496C49.2278 18.0731 45.9609 14.8511 41.9291 14.8511Z" fill="#003948"/>
<path d="M44.1804 22.0496C44.1804 23.2741 43.1708 24.2698 41.9293 24.2698C40.6878 24.2698 39.6782 23.2741 39.6782 22.0496C39.6782 20.8251 40.6878 19.8295 41.9293 19.8295C43.1708 19.8295 44.1804 20.8251 44.1804 22.0496Z" fill="#B9B9B9"/>
<g style="mix-blend-mode:overlay" opacity="0.41">
<path d="M39.6782 22.0496C39.6782 23.2741 40.6878 24.2698 41.9293 24.2698V19.8295C40.6878 19.8295 39.6782 20.8251 39.6782 22.0496Z" fill="white"/>
</g>
<path d="M27.4382 13.4535H23.9268C21.9328 13.4535 20.3213 15.0428 20.3213 17.0094C20.3213 18.976 21.9328 20.5654 23.9268 20.5654H27.4382C29.382 20.5654 30.9621 19.0441 31.0374 17.1455C31.0374 17.1022 31.0436 17.0527 31.0436 17.0094C31.0436 15.0428 29.4259 13.4535 27.4382 13.4535Z" fill="#282828"/>
<path d="M27.1496 17.1455C27.1496 18.7781 25.8077 20.1078 24.1461 20.1078C22.4844 20.1078 21.1426 18.7843 21.1426 17.1455C21.1426 15.5067 22.4844 14.1832 24.1461 14.1832C25.8077 14.1832 27.1496 15.5067 27.1496 17.1455Z" fill="#161616"/>
<path d="M29.5893 16.391H24.2783V17.8938H29.5893V16.391Z" fill="#282828"/>
<path d="M29.2944 16.6879V17.6031H24.5791V16.6879H29.2944ZM29.2944 16.1003H23.9834V18.1906H29.2944L29.8901 17.6031V16.6879L29.2944 16.1003Z" fill="#161616"/>
<path d="M30.3662 17.1455C30.3662 17.7515 29.8708 18.2401 29.2563 18.2401C28.6418 18.2401 28.1465 17.7515 28.1465 17.1455C28.1465 16.5394 28.6418 16.0509 29.2563 16.0509C29.8708 16.0509 30.3662 16.5394 30.3662 17.1455Z" fill="#161616"/>
<path d="M25.2558 17.1455C25.2558 17.7515 24.7605 18.2401 24.146 18.2401C23.5315 18.2401 23.0361 17.7515 23.0361 17.1455C23.0361 16.5394 23.5315 16.0509 24.146 16.0509C24.7605 16.0509 25.2558 16.5394 25.2558 17.1455Z" fill="#282828"/>
<path d="M23.1559 1.67239C23.1559 2.45779 22.51 3.09477 21.7137 3.09477C20.9173 3.09477 20.2715 2.45779 20.2715 1.67239C20.2715 0.886982 20.9173 0.25 21.7137 0.25C22.51 0.25 23.1559 0.886982 23.1559 1.67239Z" fill="#353535"/>
<g style="mix-blend-mode:overlay" opacity="0.71">
<path d="M4.2504 22.0496C4.2504 19.6996 6.18795 17.7887 8.57069 17.7887V14.8511C4.53884 14.8511 1.27197 18.0731 1.27197 22.0496C1.27197 26.0261 4.53884 29.2482 8.57069 29.2482V26.3106C6.18795 26.3106 4.2504 24.3997 4.2504 22.0496Z" fill="white"/>
</g>
<g style="mix-blend-mode:multiply" opacity="0.61">
<path d="M46.2495 22.0496C46.2495 19.6996 44.3119 17.7887 41.9292 17.7887V14.8511C45.9611 14.8511 49.2279 18.0731 49.2279 22.0496C49.2279 26.0261 45.9611 29.2482 41.9292 29.2482V26.3106C44.3119 26.3106 46.2495 24.3997 46.2495 22.0496Z" fill="#0A1D23"/>
</g>
<path d="M8.5644 17.1764C8.12548 17.1764 7.76807 16.8239 7.76807 16.391V13.8431H9.35447V16.391C9.35447 16.8239 8.99706 17.1764 8.55813 17.1764H8.5644Z" fill="#007695"/>
<path d="M6.09376 17.8258C5.71127 18.0422 5.22845 17.9123 5.00898 17.5413L3.71729 15.3397L5.0905 14.5543L6.3822 16.7621C6.60166 17.1393 6.46998 17.6155 6.09376 17.8319V17.8258Z" fill="#007695"/>
<path d="M4.28814 19.613C4.06868 19.9903 3.58586 20.1139 3.20337 19.8975L0.964844 18.6235L1.76118 17.2692L3.99971 18.5431C4.3822 18.7596 4.50761 19.2358 4.28814 19.613Z" fill="#007695"/>
<path d="M3.62346 22.0496C3.62346 22.4825 3.26605 22.835 2.82713 22.835H0.25V21.2704H2.8334C3.27232 21.2704 3.62973 21.6229 3.62973 22.0558L3.62346 22.0496Z" fill="#007695"/>
<path d="M4.28814 24.4862C4.50761 24.8635 4.37593 25.3397 3.99971 25.5561L1.76118 26.8301L0.964844 25.4757L3.20337 24.2018C3.58586 23.9853 4.06868 24.1152 4.28814 24.4862Z" fill="#007695"/>
<path d="M6.09376 26.2673C6.47625 26.4838 6.60166 26.9661 6.3822 27.3372L5.0905 29.5388L3.71729 28.7534L5.00898 26.5456C5.22845 26.1684 5.71127 26.0447 6.09376 26.2611V26.2673Z" fill="#007695"/>
<path d="M8.56448 26.9229C9.00341 26.9229 9.36082 27.2754 9.36082 27.7083V30.2562H7.77441V27.7083C7.77441 27.2754 8.13183 26.9229 8.57075 26.9229H8.56448Z" fill="#007695"/>
<path d="M11.035 26.2673C11.4175 26.0509 11.9003 26.1807 12.1197 26.5518L13.4114 28.7596L12.0382 29.545L10.7465 27.3434C10.5271 26.9661 10.6587 26.49 11.035 26.2735V26.2673Z" fill="#007695"/>
<path d="M12.847 24.4862C13.0665 24.109 13.5493 23.9853 13.9318 24.2018L16.1703 25.4757L15.374 26.8301L13.1355 25.5561C12.753 25.3397 12.6276 24.8635 12.847 24.4862Z" fill="#007695"/>
<path d="M13.5054 22.0496C13.5054 21.6167 13.8628 21.2642 14.3017 21.2642H16.8851V22.8288H14.3017C13.8628 22.8288 13.5054 22.4763 13.5054 22.0434V22.0496Z" fill="#007695"/>
<path d="M12.8471 19.613C12.6276 19.2358 12.7593 18.7596 13.1355 18.5431L15.3741 17.2692L16.1704 18.6235L13.9319 19.8975C13.5494 20.1139 13.0666 19.9841 12.8471 19.613Z" fill="#007695"/>
<path d="M11.0349 17.8258C10.6524 17.6093 10.527 17.1331 10.7464 16.7559L12.0381 14.5481L13.4113 15.3335L12.1196 17.5351C11.9002 17.9123 11.4174 18.036 11.0349 17.8196V17.8258Z" fill="#007695"/>
<path d="M41.9292 17.1764C41.4902 17.1764 41.1328 16.8239 41.1328 16.391V13.8431H42.7192V16.391C42.7192 16.8239 42.3618 17.1764 41.9229 17.1764H41.9292Z" fill="#007695"/>
<path d="M39.4585 17.8258C39.076 18.0422 38.5932 17.9123 38.3737 17.5413L37.082 15.3397L38.4552 14.5543L39.7469 16.7621C39.9664 17.1393 39.8347 17.6155 39.4585 17.8319V17.8258Z" fill="#007695"/>
<path d="M37.6529 19.613C37.4334 19.9903 36.9506 20.1139 36.5681 19.8975L34.3296 18.6235L35.1259 17.2692L37.3645 18.5431C37.7469 18.7596 37.8724 19.2358 37.6529 19.613Z" fill="#007695"/>
<path d="M36.9881 22.0496C36.9881 22.4825 36.6307 22.835 36.1918 22.835H33.6084V21.2704H36.1918C36.6307 21.2704 36.9881 21.6229 36.9881 22.0558V22.0496Z" fill="#007695"/>
<path d="M37.6529 24.4862C37.8724 24.8635 37.7407 25.3397 37.3645 25.5561L35.1259 26.8301L34.3296 25.4757L36.5681 24.2018C36.9506 23.9853 37.4334 24.1152 37.6529 24.4862Z" fill="#007695"/>
<path d="M39.4585 26.2673C39.841 26.4838 39.9664 26.9661 39.7469 27.3372L38.4552 29.5388L37.082 28.7534L38.3737 26.5456C38.5932 26.1684 39.076 26.0447 39.4585 26.2611V26.2673Z" fill="#007695"/>
<path d="M41.9292 26.9229C42.3682 26.9229 42.7256 27.2754 42.7256 27.7083V30.2562H41.1392V27.7083C41.1392 27.2754 41.4966 26.9229 41.9355 26.9229H41.9292Z" fill="#007695"/>
<path d="M44.3997 26.2673C44.7822 26.0509 45.265 26.1807 45.4845 26.5518L46.7762 28.7596L45.403 29.545L44.1113 27.3434C43.8918 26.9661 44.0235 26.49 44.3997 26.2735V26.2673Z" fill="#007695"/>
<path d="M46.2118 24.4862C46.4312 24.109 46.914 23.9853 47.2965 24.2018L49.5351 25.4757L48.7387 26.8301L46.5002 25.5561C46.1177 25.3397 45.9923 24.8635 46.2118 24.4862Z" fill="#007695"/>
<path d="M46.8701 22.0496C46.8701 21.6167 47.2275 21.2642 47.6665 21.2642H50.2499V22.8288H47.6665C47.2275 22.8288 46.8701 22.4763 46.8701 22.0434V22.0496Z" fill="#007695"/>
<path d="M46.2119 19.613C45.9924 19.2358 46.1241 18.7596 46.5003 18.5431L48.7388 17.2692L49.5351 18.6235L47.2966 19.8975C46.9141 20.1139 46.4313 19.9841 46.2119 19.613Z" fill="#007695"/>
<path d="M44.3996 17.8258C44.0171 17.6093 43.8917 17.1331 44.1112 16.7559L45.4029 14.5481L46.7761 15.3335L45.4844 17.5351C45.2649 17.9123 44.7821 18.036 44.3996 17.8196V17.8258Z" fill="#007695"/>
</g>
<defs>
<clipPath id="clip0_46_1010">
<rect width="50" height="30" fill="white" transform="translate(0.25 0.25)"/>
</clipPath>
</defs>
</svg>
