<svg width="89" height="40" viewBox="0 0 89 40" fill="none" xmlns="http://www.w3.org/2000/svg">
<g clip-path="url(#clip0_46_216)">
<path d="M85.2001 6.61C79.7001 2.8 73.1601 0.75 66.4701 0.75H59.2501C48.1901 0.75 37.2101 2.73 26.8501 6.61L37.6001 9.87C44.2401 11.88 51.1401 12.91 58.0701 12.91H59.5701C62.2101 11.3 65.2601 10.4 68.4201 10.4H86.3901L85.1901 6.61H85.2001Z" fill="#55BBFE"/>
<path d="M81.3602 19.91C79.5502 15.37 75.1502 12.39 70.2602 12.39H67.1802C60.1402 12.39 54.4302 18.1 54.4302 25.14V27.14C55.4502 28.16 56.4102 29.12 57.7102 30.42H77.8902V24.77H78.7202L81.9902 21.5L81.3602 19.92V19.91Z" fill="black"/>
<path d="M58.0698 12.91C51.1298 12.91 44.2298 11.89 37.5998 9.87L26.8498 6.61H15.5898V12.39H17.8898C22.7798 12.39 27.1798 15.37 28.9898 19.91L31.1398 25.29C31.2798 25.11 31.4298 24.95 31.5498 24.76H31.9498L50.9998 21.39L55.7998 16.04C56.9098 14.8 58.1898 13.76 59.5798 12.91H58.0798H58.0698Z" fill="#0A1D23"/>
<path d="M2.01018 12.78C1.46018 13.65 1.02018 14.59 0.680176 15.58H2.01018V12.78Z" fill="#C4EEF0"/>
<path d="M6.52979 15.45C7.83979 14.33 9.36979 13.47 11.0598 12.95V11.06H6.52979V15.45Z" fill="#C4EEF0"/>
<path d="M11.0601 6.79V11.06H15.5901V6.61H13.1301C12.4201 6.61 11.7401 6.68 11.0601 6.79Z" fill="#C4EEF0"/>
<path d="M6.53004 8.39999C5.31004 9.10999 4.22004 10.01 3.29004 11.06H6.53004V8.39999Z" fill="#C4EEF0"/>
<path d="M6.52979 8.39999V11.06H11.0598V6.78999C9.42979 7.04999 7.89979 7.59999 6.52979 8.39999Z" fill="black"/>
<path d="M6.52988 15.59V15.45C6.47988 15.49 6.42988 15.54 6.37988 15.59H6.52988Z" fill="black"/>
<path d="M2.00977 15.59H6.38977C6.43977 15.55 6.48977 15.5 6.53977 15.45V11.06H3.29977C2.81977 11.6 2.38977 12.17 2.00977 12.79V15.59Z" fill="black"/>
<path d="M11.0601 11.06V12.95C12.2501 12.59 13.5001 12.39 14.8101 12.39H15.5901V11.06H11.0601Z" fill="black"/>
<path d="M2.01 20.11H0V24.64H2.01V20.11Z" fill="#C4EEF0"/>
<path d="M3.0898 20.11C3.8398 18.36 4.9798 16.82 6.3798 15.58H2.0498V20.11H3.0898Z" fill="#C4EEF0"/>
<path d="M2.00977 20.11V24.64H2.08977C2.14977 23.04 2.49977 21.51 3.09977 20.11H2.01977H2.00977Z" fill="black"/>
<path d="M0 20.11H2.05V15.58H0.68C0.24 16.89 0 18.28 0 19.73V20.11Z" fill="black"/>
<path d="M2.05004 29.17H2.06004V25.14C2.06004 24.97 2.08004 24.81 2.08004 24.64H2.04004V29.17H2.05004Z" fill="#C4EEF0"/>
<path d="M1.18018 29.17C1.43018 29.42 1.70018 29.63 2.00018 29.82V29.17H1.18018Z" fill="#C4EEF0"/>
<path d="M2.00977 29.17V29.82C2.00977 29.82 2.03977 29.84 2.05977 29.85V29.17H2.00977Z" fill="black"/>
<path d="M2.05 29.17V24.64H0V26.31C0 27.43 0.46 28.43 1.18 29.17H2.04H2.05Z" fill="black"/>
<path d="M17.8901 12.39H14.8101C7.77006 12.39 2.06006 18.1 2.06006 25.14V29.85C2.66006 30.2 3.36006 30.41 4.10006 30.41H20.7601C24.9901 30.41 28.7301 28.39 31.1301 25.29L28.9801 19.91C27.1701 15.37 22.7701 12.39 17.8801 12.39H17.8901Z" fill="black"/>
<path d="M27.2302 27.13C27.2302 33.56 22.0202 38.77 15.5902 38.77C9.1602 38.77 3.9502 33.56 3.9502 27.13C3.9502 20.7 9.1602 15.49 15.5902 15.49C22.0202 15.49 27.2302 20.7 27.2302 27.13Z" fill="#545454"/>
<path d="M17.7002 37.53H13.4902V39.26H17.7002V37.53Z" fill="#545454"/>
<path d="M17.7002 15.01H13.4902V16.74H17.7002V15.01Z" fill="#545454"/>
<path d="M11.3584 15.5822L7.7124 17.6872L8.5774 19.1854L12.2234 17.0804L11.3584 15.5822Z" fill="#545454"/>
<path d="M6.14507 19.2524L4.04443 22.8894L5.54251 23.7547L7.64314 20.1177L6.14507 19.2524Z" fill="#545454"/>
<path d="M5.20021 25.03H3.47021V29.24H5.20021V25.03Z" fill="#545454"/>
<path d="M5.54608 30.5078L4.04785 31.3728L6.15285 35.0188L7.65108 34.1538L5.54608 30.5078Z" fill="#545454"/>
<path d="M8.57594 35.0759L7.71094 36.5742L11.3569 38.6792L12.2219 37.1809L8.57594 35.0759Z" fill="#545454"/>
<path d="M22.604 35.0783L18.9595 37.1858L19.8255 38.6835L23.47 36.5759L22.604 35.0783Z" fill="#545454"/>
<path d="M25.647 30.5113L23.542 34.1572L25.0402 35.0222L27.1452 31.3763L25.647 30.5113Z" fill="#545454"/>
<path d="M27.71 25.03H25.98V29.24H27.71V25.03Z" fill="#545454"/>
<path d="M25.0348 19.2514L23.5366 20.1164L25.6416 23.7623L27.1398 22.8973L25.0348 19.2514Z" fill="#545454"/>
<path d="M19.8235 15.5832L18.9585 17.0814L22.6045 19.1864L23.4695 17.6882L19.8235 15.5832Z" fill="#545454"/>
<g style="mix-blend-mode:multiply" opacity="0.61">
<path d="M25.6304 27.13C25.6304 32.65 21.1604 37.12 15.6404 37.12C10.1204 37.12 5.65039 32.65 5.65039 27.13C5.65039 21.61 10.1204 17.14 15.6404 17.14C21.1604 17.14 25.6304 21.61 25.6304 27.13Z" fill="#0A1D23"/>
</g>
<g style="mix-blend-mode:overlay" opacity="0.71">
<path d="M13.4902 15.01V15.69C12.8702 15.8 12.2702 15.97 11.6902 16.17L11.3502 15.58L7.71021 17.68L8.05021 18.27C7.58021 18.67 7.14021 19.11 6.73021 19.59L6.14021 19.25L4.04021 22.89L4.63021 23.23C4.42021 23.81 4.26021 24.41 4.15021 25.03H3.47021V29.24H4.15021C4.26021 29.86 4.43021 30.46 4.63021 31.03L4.04021 31.37L6.14021 35.01L6.73021 34.67C7.13021 35.14 7.57021 35.58 8.05021 35.99L7.71021 36.58L11.3502 38.68L11.6902 38.09C12.2702 38.3 12.8702 38.46 13.4902 38.57V39.25H15.5902V15.01H13.4902Z" fill="white"/>
</g>
<path d="M21.41 27.13C21.41 30.34 18.8 32.95 15.59 32.95C12.38 32.95 9.77002 30.34 9.77002 27.13C9.77002 23.92 12.38 21.31 15.59 21.31C18.8 21.31 21.41 23.92 21.41 27.13Z" fill="#93DDFA"/>
<path d="M17.5903 27.13C17.5903 28.23 16.6903 29.13 15.5903 29.13C14.4903 29.13 13.5903 28.23 13.5903 27.13C13.5903 26.03 14.4803 25.13 15.5903 25.13C16.7003 25.13 17.5903 26.03 17.5903 27.13Z" fill="#488CFE"/>
<path d="M16.0401 24.31C16.0401 24.56 15.8401 24.76 15.5901 24.76C15.3401 24.76 15.1401 24.56 15.1401 24.31C15.1401 24.06 15.3401 23.86 15.5901 23.86C15.8401 23.86 16.0401 24.06 16.0401 24.31Z" fill="#488CFE"/>
<path d="M13.91 24.82C14.09 25 14.09 25.28 13.91 25.46C13.73 25.64 13.45 25.64 13.28 25.46C13.1 25.28 13.1 25 13.28 24.82C13.45 24.64 13.74 24.64 13.91 24.82Z" fill="#488CFE"/>
<path d="M12.7601 26.68C13.0101 26.68 13.2101 26.88 13.2101 27.13C13.2101 27.38 13.0101 27.58 12.7601 27.58C12.5101 27.58 12.3101 27.38 12.3101 27.13C12.3101 26.88 12.5101 26.68 12.7601 26.68Z" fill="#488CFE"/>
<path d="M13.2703 28.81C13.4403 28.63 13.7303 28.63 13.9003 28.81C14.0803 28.99 14.0803 29.27 13.9003 29.45C13.7203 29.63 13.4403 29.63 13.2703 29.45C13.0903 29.27 13.0903 28.99 13.2703 28.81Z" fill="#488CFE"/>
<path d="M15.1401 29.96C15.1401 29.71 15.3401 29.51 15.5901 29.51C15.8401 29.51 16.0401 29.71 16.0401 29.96C16.0401 30.21 15.8401 30.41 15.5901 30.41C15.3401 30.41 15.1401 30.21 15.1401 29.96Z" fill="#488CFE"/>
<path d="M17.2703 29.45C17.0903 29.27 17.0903 28.99 17.2703 28.81C17.4403 28.63 17.7303 28.63 17.9003 28.81C18.0803 28.99 18.0803 29.27 17.9003 29.45C17.7203 29.63 17.4403 29.63 17.2703 29.45Z" fill="#488CFE"/>
<path d="M18.4202 27.58C18.1702 27.58 17.9702 27.38 17.9702 27.13C17.9702 26.88 18.1702 26.68 18.4202 26.68C18.6702 26.68 18.8702 26.88 18.8702 27.13C18.8702 27.38 18.6702 27.58 18.4202 27.58Z" fill="#488CFE"/>
<path d="M15.6404 27.58C15.3904 27.58 15.1904 27.38 15.1904 27.13C15.1904 26.88 15.3904 26.68 15.6404 26.68C15.8904 26.68 16.0904 26.88 16.0904 27.13C16.0904 27.38 15.8904 27.58 15.6404 27.58Z" fill="#93DDFA"/>
<path d="M17.9003 25.45C17.7203 25.63 17.4403 25.63 17.2703 25.45C17.0903 25.27 17.0903 24.99 17.2703 24.81C17.4403 24.63 17.7303 24.63 17.9003 24.81C18.0803 24.99 18.0803 25.27 17.9003 25.45Z" fill="#488CFE"/>
<path d="M15.59 23.21C17.75 23.21 19.51 24.97 19.51 27.13C19.51 29.29 17.75 31.05 15.59 31.05C13.43 31.05 11.67 29.29 11.67 27.13C11.67 24.97 13.43 23.21 15.59 23.21ZM15.59 21.31C12.38 21.31 9.77002 23.92 9.77002 27.13C9.77002 30.34 12.38 32.95 15.59 32.95C18.8 32.95 21.41 30.34 21.41 27.13C21.41 23.92 18.8 21.31 15.59 21.31Z" fill="#050F12"/>
<g style="mix-blend-mode:overlay" opacity="0.71">
<path d="M9.77002 27.13C9.77002 30.34 12.38 32.95 15.59 32.95V21.31C12.38 21.31 9.77002 23.92 9.77002 27.13Z" fill="white"/>
</g>
<path d="M80.4402 27.13C80.4402 33.56 75.2302 38.77 68.8002 38.77C62.3702 38.77 57.1602 33.56 57.1602 27.13C57.1602 20.7 62.3702 15.49 68.8002 15.49C75.2302 15.49 80.4402 20.7 80.4402 27.13Z" fill="#545454"/>
<path d="M70.8999 37.53H66.6899V39.26H70.8999V37.53Z" fill="#545454"/>
<path d="M70.8999 15.01H66.6899V16.74H70.8999V15.01Z" fill="#545454"/>
<path d="M64.5605 15.5922L60.9146 17.6972L61.7796 19.1954L65.4255 17.0904L64.5605 15.5922Z" fill="#545454"/>
<path d="M59.3456 19.2562L57.2456 22.8935L58.7438 23.7585L60.8438 20.1212L59.3456 19.2562Z" fill="#545454"/>
<path d="M58.4102 25.03H56.6802V29.24H58.4102V25.03Z" fill="#545454"/>
<path d="M58.7389 30.5078L57.2407 31.3728L59.3457 35.0188L60.8439 34.1538L58.7389 30.5078Z" fill="#545454"/>
<path d="M61.7761 35.0834L60.9111 36.5816L64.5571 38.6866L65.4221 37.1884L61.7761 35.0834Z" fill="#545454"/>
<path d="M75.8169 35.0811L72.1724 37.1887L73.0384 38.6863L76.6829 36.5787L75.8169 35.0811Z" fill="#545454"/>
<path d="M78.8524 30.5083L76.748 34.1546L78.2464 35.0194L80.3508 31.373L78.8524 30.5083Z" fill="#545454"/>
<path d="M80.9199 25.03H79.1899V29.24H80.9199V25.03Z" fill="#545454"/>
<path d="M78.2463 19.2564L76.748 20.1214L78.848 23.7587L80.3463 22.8937L78.2463 19.2564Z" fill="#545454"/>
<path d="M73.0386 15.5807L72.1733 17.0788L75.8189 19.1844L76.6842 17.6863L73.0386 15.5807Z" fill="#545454"/>
<g style="mix-blend-mode:multiply" opacity="0.61">
<path d="M78.8301 27.13C78.8301 32.65 74.3601 37.12 68.8401 37.12C63.3201 37.12 58.8501 32.65 58.8501 27.13C58.8501 21.61 63.3201 17.14 68.8401 17.14C74.3601 17.14 78.8301 21.61 78.8301 27.13Z" fill="#0A1D23"/>
</g>
<g style="mix-blend-mode:overlay" opacity="0.71">
<path d="M66.6902 15.01V15.69C66.0702 15.8 65.4802 15.97 64.9002 16.17L64.5602 15.58L60.9202 17.68L61.2602 18.27C60.7902 18.67 60.3502 19.11 59.9402 19.59L59.3502 19.25L57.2502 22.89L57.8402 23.23C57.6302 23.81 57.4702 24.41 57.3602 25.03H56.6802V29.24H57.3602C57.4702 29.86 57.6402 30.46 57.8402 31.03L57.2502 31.37L59.3502 35.01L59.9402 34.67C60.3402 35.14 60.7802 35.58 61.2602 35.99L60.9202 36.58L64.5602 38.68L64.9002 38.09C65.4802 38.3 66.0802 38.46 66.6902 38.57V39.25H68.7902V15.01H66.6902Z" fill="white"/>
</g>
<path d="M74.62 27.13C74.62 30.34 72.01 32.95 68.8 32.95C65.59 32.95 62.98 30.34 62.98 27.13C62.98 23.92 65.59 21.31 68.8 21.31C72.01 21.31 74.62 23.92 74.62 27.13Z" fill="#93DDFA"/>
<path d="M70.8003 27.13C70.8003 28.23 69.9003 29.13 68.8003 29.13C67.7003 29.13 66.8003 28.23 66.8003 27.13C66.8003 26.03 67.7003 25.13 68.8003 25.13C69.9003 25.13 70.8003 26.03 70.8003 27.13Z" fill="#488CFE"/>
<path d="M69.2403 24.31C69.2403 24.56 69.0403 24.76 68.7903 24.76C68.5403 24.76 68.3403 24.56 68.3403 24.31C68.3403 24.06 68.5403 23.86 68.7903 23.86C69.0403 23.86 69.2403 24.06 69.2403 24.31Z" fill="#488CFE"/>
<path d="M67.11 24.82C67.28 25 67.28 25.28 67.11 25.46C66.93 25.64 66.65 25.64 66.47 25.46C66.29 25.28 66.29 25 66.47 24.82C66.65 24.64 66.93 24.64 67.11 24.82Z" fill="#488CFE"/>
<path d="M65.97 26.68C66.22 26.68 66.42 26.88 66.42 27.13C66.42 27.38 66.22 27.58 65.97 27.58C65.72 27.58 65.52 27.38 65.52 27.13C65.52 26.88 65.72 26.68 65.97 26.68Z" fill="#488CFE"/>
<path d="M66.4802 28.81C66.6602 28.63 66.9402 28.63 67.1202 28.81C67.2902 28.99 67.2902 29.27 67.1202 29.45C66.9402 29.63 66.6602 29.63 66.4802 29.45C66.3002 29.27 66.3002 28.99 66.4802 28.81Z" fill="#488CFE"/>
<path d="M68.3501 29.96C68.3501 29.71 68.5501 29.51 68.8001 29.51C69.0501 29.51 69.2501 29.71 69.2501 29.96C69.2501 30.21 69.0501 30.41 68.8001 30.41C68.5501 30.41 68.3501 30.21 68.3501 29.96Z" fill="#488CFE"/>
<path d="M70.4802 29.45C70.3002 29.27 70.3002 28.99 70.4802 28.81C70.6602 28.63 70.9402 28.63 71.1202 28.81C71.3002 28.99 71.3002 29.27 71.1202 29.45C70.9402 29.63 70.6602 29.63 70.4802 29.45Z" fill="#488CFE"/>
<path d="M71.6204 27.58C71.3704 27.58 71.1704 27.38 71.1704 27.13C71.1704 26.88 71.3704 26.68 71.6204 26.68C71.8704 26.68 72.0704 26.88 72.0704 27.13C72.0704 27.38 71.8704 27.58 71.6204 27.58Z" fill="#488CFE"/>
<path d="M68.8401 27.58C68.5901 27.58 68.3901 27.38 68.3901 27.13C68.3901 26.88 68.5901 26.68 68.8401 26.68C69.0901 26.68 69.2901 26.88 69.2901 27.13C69.2901 27.38 69.0901 27.58 68.8401 27.58Z" fill="#93DDFA"/>
<path d="M71.11 25.45C70.93 25.63 70.65 25.63 70.47 25.45C70.29 25.27 70.29 24.99 70.47 24.81C70.65 24.63 70.93 24.63 71.11 24.81C71.29 24.99 71.29 25.27 71.11 25.45Z" fill="#488CFE"/>
<path d="M68.8 23.21C70.96 23.21 72.72 24.97 72.72 27.13C72.72 29.29 70.96 31.05 68.8 31.05C66.64 31.05 64.88 29.29 64.88 27.13C64.88 24.97 66.64 23.21 68.8 23.21ZM68.8 21.31C65.59 21.31 62.98 23.92 62.98 27.13C62.98 30.34 65.59 32.95 68.8 32.95C72.01 32.95 74.62 30.34 74.62 27.13C74.62 23.92 72.01 21.31 68.8 21.31Z" fill="#050F12"/>
<g style="mix-blend-mode:overlay" opacity="0.71">
<path d="M62.98 27.13C62.98 30.34 65.59 32.95 68.8 32.95V21.31C65.59 21.31 62.98 23.92 62.98 27.13Z" fill="white"/>
</g>
<path d="M31.94 24.76L31.54 24.7L52.04 24.83L54.42 27.21V27.14C53.7 26.42 52.95 25.67 52.04 24.76H31.93H31.94Z" fill="#488CFE"/>
<path d="M64.9899 5.47C66.3799 4.72 67.8299 4.07 69.3399 3.53C68.3899 3.44 67.4299 3.38 66.4599 3.38H59.2399C51.5099 3.38 43.8699 4.37 36.4399 6.32L38.4199 6.92C39.3799 7.21 40.3599 7.48 41.3299 7.72C47.8699 6.22 54.5599 5.47 61.3299 5.47H64.9899Z" fill="#0A1D23"/>
<path d="M58.7998 9.84C58.7998 9.84 58.8398 9.82 58.8598 9.81C60.7198 8.13 62.7798 6.67 64.9998 5.47H61.3398C54.5698 5.47 47.8798 6.23 41.3398 7.72C46.8098 9.12 52.4198 9.83 58.0798 9.83H58.8098L58.7998 9.84Z" fill="#0A1D23"/>
<g style="mix-blend-mode:soft-light">
<path d="M58.7998 9.84C58.7998 9.84 58.8398 9.82 58.8598 9.81C60.7198 8.13 62.7798 6.67 64.9998 5.47H61.3398C54.5698 5.47 47.8798 6.23 41.3398 7.72C46.8098 9.12 52.4198 9.83 58.0798 9.83H58.8098L58.7998 9.84Z" fill="white"/>
</g>
<path d="M68.7998 9.11001C69.9154 9.11001 70.8198 8.20562 70.8198 7.09001C70.8198 5.97439 69.9154 5.07001 68.7998 5.07001C67.6842 5.07001 66.7798 5.97439 66.7798 7.09001C66.7798 8.20562 67.6842 9.11001 68.7998 9.11001Z" fill="#93DDFA"/>
<path d="M62.49 2.49001H61.46V10.4H62.49V2.49001Z" fill="#55BBFE"/>
<path d="M46.3698 2.49001H45.3398V10.4H46.3698V2.49001Z" fill="#55BBFE"/>
<path d="M46.3298 15.74H33.0698V24.58H46.3298V15.74Z" fill="#C4EEF0"/>
<path d="M37.4898 20.16H33.0698V24.58H37.4898V20.16Z" fill="black"/>
<path d="M41.9097 15.74H37.4897V20.16H41.9097V15.74Z" fill="black"/>
<path d="M46.3302 20.16H41.9102V24.58H46.3302V20.16Z" fill="black"/>
<path d="M46.3298 13.5H33.0698V14.9H46.3298V13.5Z" fill="#488CFE"/>
<path d="M85.1999 13.27V10.4H68.4199C63.5999 10.4 59.0099 12.45 55.7899 16.04L50.9899 21.39L31.6299 24.7L52.0499 24.76C52.9599 25.67 53.7099 26.42 54.4299 27.14V25.14C54.4299 18.1 60.1399 12.39 67.1799 12.39H70.2599C75.1499 12.39 79.5499 15.37 81.3599 19.91L83.2999 24.76H85.1999L88.1999 16L87.3199 13.27H85.1999Z" fill="#488CFE"/>
<path d="M85.1898 10.4H80.0498V13.27H85.1898V10.4Z" fill="#B3211B"/>
</g>
<defs>
<clipPath id="clip0_46_216">
<rect width="88.19" height="38.5" fill="white" transform="translate(0 0.75)"/>
</clipPath>
</defs>
</svg>
