<svg width="56" height="36" viewBox="0 0 56 36" fill="none" xmlns="http://www.w3.org/2000/svg">
<g clip-path="url(#clip0_46_578)">
<path d="M38.2426 2.07178C38.7718 2.07178 39.201 2.50637 39.201 3.04218V16.5563C38.1427 16.5563 37.2783 15.6871 37.2783 14.6096V3.04218C37.2783 2.50637 37.7076 2.07178 38.2367 2.07178H38.2426Z" fill="#A8A8A8"/>
<path d="M34.4975 0C35.0267 0 35.4559 0.434596 35.4559 0.970399V16.5563C34.3975 16.5563 33.5332 15.6871 33.5332 14.6096V0.970399C33.5332 0.434596 33.9624 0 34.4916 0H34.4975Z" fill="#E0E0E0"/>
<path d="M46.7392 10.6744C47.2684 10.6744 47.6976 11.109 47.6976 11.6448V16.5563C46.6392 16.5563 45.7749 15.6871 45.7749 14.6096V11.6448C45.7749 11.109 46.2041 10.6744 46.7333 10.6744H46.7392Z" fill="#A8A8A8"/>
<path d="M38.8937 2.3433L37.5342 3.71986L46.1406 12.4339L47.5002 11.0573L38.8937 2.3433Z" fill="#A8A8A8"/>
<path d="M19.2899 3.58129L17.543 2.76811L11.9087 15.1766L13.6557 15.9898L19.2899 3.58129Z" fill="#A8A8A8"/>
<path d="M32.5804 2.07178H22.2788L17.0986 14.1928H32.5804V2.07178Z" fill="#1C53C1"/>
<path d="M19.8091 12.4961H31.0632V3.76848H23.5428L19.8091 12.4961Z" fill="#E0E0E0"/>
<path d="M17.0985 14.1928H8.76084C5.57394 14.1928 2.99268 16.8063 2.99268 20.0331V29.9752H54.6004V16.5682C54.6004 15.2525 53.5479 14.1869 52.2485 14.1869H17.0985V14.1928Z" fill="#4A84DA"/>
<path d="M7.90848 18.7114H18.6981C20.5208 18.7114 21.9967 20.2117 21.9967 22.0513V29.9752H4.60986V22.0513C4.60986 20.2057 6.09159 18.7114 7.90848 18.7114Z" fill="#0A1D23"/>
<path d="M39.1131 18.7114H49.9027C51.7254 18.7114 53.2013 20.2117 53.2013 22.0513V29.9752H35.8145V22.0513C35.8145 20.2057 37.2962 18.7114 39.1131 18.7114Z" fill="#0A1D23"/>
<path d="M20.0326 28.7845C20.0326 32.6125 16.9692 35.7142 13.1884 35.7142C9.40766 35.7142 6.34424 32.6125 6.34424 28.7845C6.34424 24.9565 9.40766 21.8548 13.1884 21.8548C16.9692 21.8548 20.0326 24.9565 20.0326 28.7845Z" fill="#003948"/>
<path d="M14.4232 34.976H11.9536V36.006H14.4232V34.976Z" fill="#003948"/>
<path d="M14.4232 21.569H11.9536V22.599H14.4232V21.569Z" fill="#003948"/>
<path d="M10.6967 21.9113L8.55273 23.1641L9.06119 24.0562L11.2052 22.8034L10.6967 21.9113Z" fill="#003948"/>
<path d="M7.63615 24.0942L6.39844 26.2647L7.27938 26.7797L8.51709 24.6091L7.63615 24.0942Z" fill="#003948"/>
<path d="M7.07923 27.5343H6.06201V30.0407H7.07923V27.5343Z" fill="#003948"/>
<path d="M7.28182 30.7994L6.40088 31.3143L7.63565 33.4798L8.51659 32.9648L7.28182 30.7994Z" fill="#003948"/>
<path d="M9.06363 33.5159L8.55518 34.4079L10.6992 35.6607L11.2076 34.7687L9.06363 33.5159Z" fill="#003948"/>
<path d="M17.3184 33.5155L15.1748 34.7691L15.6836 35.6609L17.8271 34.4074L17.3184 33.5155Z" fill="#003948"/>
<path d="M19.0989 30.7965L17.8652 32.9626L18.7464 33.4771L19.9801 31.311L19.0989 30.7965Z" fill="#003948"/>
<path d="M20.3209 27.5343H19.3037V30.0407H20.3209V27.5343Z" fill="#003948"/>
<path d="M18.7462 24.0891L17.8652 24.604L19.103 26.7746L19.9839 26.2597L18.7462 24.0891Z" fill="#003948"/>
<path d="M15.685 21.9107L15.1763 22.8026L17.3198 24.0561L17.8286 23.1643L15.685 21.9107Z" fill="#003948"/>
<g style="mix-blend-mode:multiply" opacity="0.61">
<path d="M19.0918 28.7845C19.0918 32.0708 16.4634 34.7319 13.2178 34.7319C9.97206 34.7319 7.34375 32.0708 7.34375 28.7845C7.34375 25.4983 9.97206 22.8371 13.2178 22.8371C16.4634 22.8371 19.0918 25.4983 19.0918 28.7845Z" fill="#0A1D23"/>
</g>
<g style="mix-blend-mode:overlay" opacity="0.71">
<path d="M11.9536 21.569V21.9739C11.5891 22.0394 11.2363 22.1406 10.8953 22.2596L10.6953 21.9084L8.55506 23.1586L8.75498 23.5098C8.47862 23.748 8.21991 24.0099 7.98471 24.2957L7.6378 24.0933L6.40302 26.2603L6.74994 26.4627C6.62646 26.808 6.53238 27.1652 6.4677 27.5284H6.06787V30.0347H6.4677C6.53238 30.4038 6.63234 30.761 6.74994 31.1004L6.40302 31.3028L7.6378 33.4698L7.98471 33.2674C8.21991 33.5472 8.47862 33.8092 8.75498 34.0473L8.55506 34.3985L10.6953 35.6488L10.8953 35.2975C11.2363 35.4225 11.5891 35.5178 11.9536 35.5833V35.9881H13.1884V21.5571H11.9536V21.569Z" fill="white"/>
</g>
<path d="M16.6103 28.7845C16.6103 30.6956 15.0756 32.2494 13.1882 32.2494C11.3008 32.2494 9.76611 30.6956 9.76611 28.7845C9.76611 26.8735 11.3008 25.3197 13.1882 25.3197C15.0756 25.3197 16.6103 26.8735 16.6103 28.7845Z" fill="#A8A8A8"/>
<path d="M14.3646 28.7845C14.3646 29.4394 13.8355 29.9752 13.1887 29.9752C12.5419 29.9752 12.0127 29.4394 12.0127 28.7845C12.0127 28.1297 12.5419 27.5938 13.1887 27.5938C13.8355 27.5938 14.3646 28.1297 14.3646 28.7845Z" fill="#545454"/>
<path d="M13.453 27.1057C13.453 27.2545 13.3354 27.3736 13.1884 27.3736C13.0414 27.3736 12.9238 27.2545 12.9238 27.1057C12.9238 26.9568 13.0414 26.8378 13.1884 26.8378C13.3354 26.8378 13.453 26.9568 13.453 27.1057Z" fill="#545454"/>
<path d="M12.2008 27.4093C12.3066 27.5165 12.3066 27.6832 12.2008 27.7903C12.095 27.8975 11.9303 27.8975 11.8245 27.7903C11.7245 27.6832 11.7245 27.5165 11.8245 27.4093C11.9303 27.3021 12.095 27.3021 12.2008 27.4093Z" fill="#545454"/>
<path d="M11.5302 28.5166C11.6772 28.5166 11.7948 28.6357 11.7948 28.7845C11.7948 28.9334 11.6772 29.0524 11.5302 29.0524C11.3832 29.0524 11.2656 28.9334 11.2656 28.7845C11.2656 28.6357 11.3832 28.5166 11.5302 28.5166Z" fill="#545454"/>
<path d="M11.8303 29.7906C11.9362 29.6835 12.1008 29.6835 12.2067 29.7906C12.3125 29.8978 12.3125 30.0645 12.2067 30.1717C12.1008 30.2788 11.9362 30.2788 11.8303 30.1717C11.7304 30.0645 11.7304 29.8978 11.8303 29.7906Z" fill="#545454"/>
<path d="M12.9238 30.4693C12.9238 30.3205 13.0414 30.2014 13.1884 30.2014C13.3354 30.2014 13.453 30.3205 13.453 30.4693C13.453 30.6182 13.3354 30.7372 13.1884 30.7372C13.0414 30.7372 12.9238 30.6182 12.9238 30.4693Z" fill="#545454"/>
<path d="M14.1819 30.1657C14.0761 30.0585 14.0761 29.8918 14.1819 29.7847C14.2878 29.6775 14.4524 29.6775 14.5582 29.7847C14.6641 29.8918 14.6641 30.0585 14.5582 30.1657C14.4583 30.2729 14.2878 30.2729 14.1819 30.1657Z" fill="#545454"/>
<path d="M14.8525 29.0524C14.7055 29.0524 14.5879 28.9334 14.5879 28.7845C14.5879 28.6357 14.7055 28.5166 14.8525 28.5166C14.9995 28.5166 15.1171 28.6357 15.1171 28.7845C15.1171 28.9334 14.9995 29.0524 14.8525 29.0524Z" fill="#545454"/>
<path d="M13.2177 29.0524C13.0707 29.0524 12.9531 28.9334 12.9531 28.7845C12.9531 28.6357 13.0707 28.5166 13.2177 28.5166C13.3647 28.5166 13.4823 28.6357 13.4823 28.7845C13.4823 28.9334 13.3647 29.0524 13.2177 29.0524Z" fill="#A8A8A8"/>
<path d="M14.5524 27.7844C14.4524 27.8915 14.2819 27.8915 14.1761 27.7844C14.0702 27.6772 14.0702 27.5105 14.1761 27.4033C14.2819 27.2962 14.4465 27.2962 14.5524 27.4033C14.6582 27.5105 14.6582 27.6772 14.5524 27.7844Z" fill="#545454"/>
<path d="M13.1882 26.4508C14.4583 26.4508 15.4931 27.4986 15.4931 28.7845C15.4931 30.0704 14.4583 31.1182 13.1882 31.1182C11.9182 31.1182 10.8833 30.0704 10.8833 28.7845C10.8833 27.4986 11.9182 26.4508 13.1882 26.4508ZM13.1882 25.3197C11.3008 25.3197 9.76611 26.8735 9.76611 28.7845C9.76611 30.6956 11.3008 32.2494 13.1882 32.2494C15.0756 32.2494 16.6103 30.6956 16.6103 28.7845C16.6103 26.8735 15.0756 25.3197 13.1882 25.3197Z" fill="#E0E0E0"/>
<g style="mix-blend-mode:overlay" opacity="0.71">
<path d="M9.76611 28.7845C9.76611 30.6956 11.3008 32.2494 13.1882 32.2494V25.3197C11.3008 25.3197 9.76611 26.8735 9.76611 28.7845Z" fill="white"/>
</g>
<path d="M51.3197 28.7845C51.3197 32.6125 48.2563 35.7142 44.4755 35.7142C40.6948 35.7142 37.6313 32.6125 37.6313 28.7845C37.6313 24.9565 40.6948 21.8548 44.4755 21.8548C48.2563 21.8548 51.3197 24.9565 51.3197 28.7845Z" fill="#003948"/>
<path d="M45.7162 34.976H43.2407V36.006H45.7162V34.976Z" fill="#003948"/>
<path d="M45.7162 21.569H43.2407V22.599H45.7162V21.569Z" fill="#003948"/>
<path d="M41.9882 21.9062L39.8438 23.1583L40.3519 24.0505L42.4963 22.7984L41.9882 21.9062Z" fill="#003948"/>
<path d="M38.9203 24.0875L37.6826 26.2581L38.5636 26.773L39.8013 24.6024L38.9203 24.0875Z" fill="#003948"/>
<path d="M38.3663 27.5343H37.3491V30.0407H38.3663V27.5343Z" fill="#003948"/>
<path d="M38.5699 30.7964L37.689 31.3114L38.9237 33.4768L39.8047 32.9618L38.5699 30.7964Z" fill="#003948"/>
<path d="M40.3524 33.5151L39.8438 34.4071L41.9875 35.6603L42.4961 34.7683L40.3524 33.5151Z" fill="#003948"/>
<path d="M48.6058 33.518L46.4629 34.7727L46.9721 35.6643L49.115 34.4096L48.6058 33.518Z" fill="#003948"/>
<path d="M50.3865 30.7994L49.1528 32.9655L50.034 33.48L51.2677 31.3139L50.3865 30.7994Z" fill="#003948"/>
<path d="M51.608 27.5343H50.5908V30.0407H51.608V27.5343Z" fill="#003948"/>
<path d="M50.0338 24.0861L49.1528 24.6011L50.3905 26.7716L51.2715 26.2567L50.0338 24.0861Z" fill="#003948"/>
<path d="M46.9741 21.9128L46.4653 22.8046L48.6089 24.0582L49.1177 23.1663L46.9741 21.9128Z" fill="#003948"/>
<g style="mix-blend-mode:multiply" opacity="0.61">
<path d="M50.3789 28.7845C50.3789 32.0708 47.7506 34.7319 44.5049 34.7319C41.2592 34.7319 38.6309 32.0708 38.6309 28.7845C38.6309 25.4983 41.2592 22.8371 44.5049 22.8371C47.7506 22.8371 50.3789 25.4983 50.3789 28.7845Z" fill="#0A1D23"/>
</g>
<g style="mix-blend-mode:overlay" opacity="0.71">
<path d="M43.2407 21.569V21.9739C42.8762 22.0394 42.5293 22.1406 42.1882 22.2596L41.9883 21.9084L39.848 23.1586L40.048 23.5098C39.7716 23.748 39.5129 24.0099 39.2718 24.2957L38.9249 24.0933L37.6901 26.2603L38.037 26.4627C37.9136 26.808 37.8195 27.1652 37.7548 27.5284H37.355V30.0347H37.7548C37.8195 30.4038 37.9195 30.761 38.037 31.1004L37.6901 31.3028L38.9249 33.4698L39.2718 33.2674C39.507 33.5472 39.7657 33.8092 40.048 34.0473L39.848 34.3985L41.9883 35.6488L42.1882 35.2975C42.5293 35.4225 42.8821 35.5178 43.2407 35.5833V35.9881H44.4755V21.5571H43.2407V21.569Z" fill="white"/>
</g>
<path d="M47.8974 28.7845C47.8974 30.6956 46.3628 32.2494 44.4753 32.2494C42.5879 32.2494 41.0532 30.6956 41.0532 28.7845C41.0532 26.8735 42.5879 25.3197 44.4753 25.3197C46.3628 25.3197 47.8974 26.8735 47.8974 28.7845Z" fill="#A8A8A8"/>
<path d="M45.6518 28.7845C45.6518 29.4394 45.1226 29.9752 44.4758 29.9752C43.829 29.9752 43.2998 29.4394 43.2998 28.7845C43.2998 28.1297 43.829 27.5938 44.4758 27.5938C45.1226 27.5938 45.6518 28.1297 45.6518 28.7845Z" fill="#545454"/>
<path d="M44.4755 27.3736C44.6217 27.3736 44.7401 27.2536 44.7401 27.1057C44.7401 26.9577 44.6217 26.8378 44.4755 26.8378C44.3294 26.8378 44.2109 26.9577 44.2109 27.1057C44.2109 27.2536 44.3294 27.3736 44.4755 27.3736Z" fill="#545454"/>
<path d="M43.4879 27.4093C43.5879 27.5165 43.5879 27.6832 43.4879 27.7903C43.3821 27.8975 43.2174 27.8975 43.1116 27.7903C43.0058 27.6832 43.0058 27.5165 43.1116 27.4093C43.2116 27.3021 43.3821 27.3021 43.4879 27.4093Z" fill="#545454"/>
<path d="M42.8115 28.5166C42.9585 28.5166 43.0761 28.6357 43.0761 28.7845C43.0761 28.9334 42.9585 29.0524 42.8115 29.0524C42.6645 29.0524 42.5469 28.9334 42.5469 28.7845C42.5469 28.6357 42.6645 28.5166 42.8115 28.5166Z" fill="#545454"/>
<path d="M43.1175 29.7906C43.2174 29.6835 43.3879 29.6835 43.4938 29.7906C43.5937 29.8978 43.5937 30.0645 43.4938 30.1717C43.3879 30.2788 43.2233 30.2788 43.1175 30.1717C43.0116 30.0645 43.0116 29.8978 43.1175 29.7906Z" fill="#545454"/>
<path d="M44.2109 30.4693C44.2109 30.3205 44.3285 30.2014 44.4755 30.2014C44.6225 30.2014 44.7401 30.3205 44.7401 30.4693C44.7401 30.6182 44.6225 30.7372 44.4755 30.7372C44.3285 30.7372 44.2109 30.6182 44.2109 30.4693Z" fill="#545454"/>
<path d="M45.4632 30.1657C45.3573 30.0585 45.3573 29.8918 45.4632 29.7847C45.569 29.6775 45.7336 29.6775 45.8395 29.7847C45.9394 29.8918 45.9394 30.0585 45.8395 30.1657C45.7336 30.2729 45.569 30.2729 45.4632 30.1657Z" fill="#545454"/>
<path d="M46.1396 29.0524C45.9926 29.0524 45.875 28.9334 45.875 28.7845C45.875 28.6357 45.9926 28.5166 46.1396 28.5166C46.2866 28.5166 46.4042 28.6357 46.4042 28.7845C46.4042 28.9334 46.2866 29.0524 46.1396 29.0524Z" fill="#545454"/>
<path d="M44.5048 29.0524C44.3578 29.0524 44.2402 28.9334 44.2402 28.7845C44.2402 28.6357 44.3578 28.5166 44.5048 28.5166C44.6518 28.5166 44.7694 28.6357 44.7694 28.7845C44.7694 28.9334 44.6518 29.0524 44.5048 29.0524Z" fill="#A8A8A8"/>
<path d="M45.8395 27.7844C45.7336 27.8915 45.569 27.8915 45.4632 27.7844C45.3573 27.6772 45.3573 27.5105 45.4632 27.4033C45.569 27.2962 45.7336 27.2962 45.8395 27.4033C45.9394 27.5105 45.9394 27.6772 45.8395 27.7844Z" fill="#545454"/>
<path d="M44.4753 26.4508C45.7454 26.4508 46.7802 27.4986 46.7802 28.7845C46.7802 30.0704 45.7454 31.1182 44.4753 31.1182C43.2053 31.1182 42.1704 30.0704 42.1704 28.7845C42.1704 27.4986 43.2053 26.4508 44.4753 26.4508ZM44.4753 25.3197C42.5879 25.3197 41.0532 26.8735 41.0532 28.7845C41.0532 30.6956 42.5879 32.2494 44.4753 32.2494C46.3628 32.2494 47.8974 30.6956 47.8974 28.7845C47.8974 26.8735 46.3628 25.3197 44.4753 25.3197Z" fill="#E0E0E0"/>
<g style="mix-blend-mode:overlay" opacity="0.71">
<path d="M41.0532 28.7845C41.0532 30.6956 42.5879 32.2494 44.4753 32.2494V25.3197C42.5879 25.3197 41.0532 26.8735 41.0532 28.7845Z" fill="white"/>
</g>
<path d="M2.03461 18.7114C2.5638 18.7114 2.99303 19.146 2.99303 19.6818V26.8318C1.93466 26.8318 1.07031 25.9626 1.07031 24.8851V19.6759C1.07031 19.1401 1.49954 18.7055 2.02873 18.7055L2.03461 18.7114Z" fill="#A8A8A8"/>
<path d="M1.0525 24.4743H4.60983V28.5166H1.0525C0.470391 28.5166 0 28.0404 0 27.451V25.5399C0 24.9506 0.470391 24.4743 1.0525 24.4743Z" fill="#003948"/>
<path d="M54.6006 29.9752H53.2012V34.1545H54.6006V29.9752Z" fill="#003948"/>
<path d="M56 18.7114H54.6006V22.8907H56V18.7114Z" fill="#B3211B"/>
<path d="M21.9966 29.9752V31.3921H35.8084V29.9752H21.9966Z" fill="#003948"/>
<path d="M17.5044 3.04218C17.5044 2.50637 17.9336 2.07178 18.4628 2.07178H38.2427V4.01853H18.4687C17.9395 4.01853 17.5103 3.58393 17.5103 3.04813L17.5044 3.04218Z" fill="#A8A8A8"/>
<g style="mix-blend-mode:overlay" opacity="0.71">
<path d="M52.2484 14.1928H8.76081C6.85573 14.1928 5.17408 15.1335 4.12158 16.5742H54.5945C54.5945 15.2585 53.542 14.1928 52.2425 14.1928H52.2484Z" fill="white"/>
</g>
<path d="M26.6889 15.9312H23.4902C23.1022 15.9312 22.7905 16.2467 22.7905 16.6397C22.7905 17.0326 23.1022 17.3481 23.4902 17.3481H26.6889C27.077 17.3481 27.3886 17.0326 27.3886 16.6397C27.3886 16.2467 27.077 15.9312 26.6889 15.9312Z" fill="#1C53C1"/>
<path d="M8.9492 15.9312H6.57373V17.3481H8.9492V15.9312Z" fill="white"/>
<path d="M29.605 15.9312H28.2056V27.9511H29.605V15.9312Z" fill="#1C53C1"/>
<g style="mix-blend-mode:overlay" opacity="0.71">
<path d="M23.5428 3.76848L19.8091 12.4961H21.9964L30.6163 3.76848H23.5428Z" fill="white"/>
</g>
<path d="M20.5973 8.68596V12.9069H18.8921V13.6153H21.9967V10.1029C21.9967 9.32297 21.3675 8.68596 20.5973 8.68596Z" fill="#003948"/>
<g style="mix-blend-mode:overlay" opacity="0.71">
<path d="M1.0525 24.4743C0.470391 24.4743 0 24.9506 0 25.5399V27.451C0 28.0404 0.470391 28.5166 1.0525 28.5166H1.07014V24.4743H1.0525Z" fill="white"/>
</g>
</g>
<defs>
<clipPath id="clip0_46_578">
<rect width="56" height="36" fill="white"/>
</clipPath>
</defs>
</svg>
