<svg width="54" height="38" viewBox="0 0 54 38" fill="none" xmlns="http://www.w3.org/2000/svg">
<g clip-path="url(#clip0_46_895)">
<path d="M16.6169 20.3796C15.8209 20.5258 15.1211 20.8293 14.4834 21.3357C14.4834 21.3357 14.4834 21.3401 14.4834 21.3379C15.1211 20.8336 15.8187 20.5346 16.6127 20.3927C16.6169 20.3927 16.6234 20.3774 16.6169 20.3796Z" fill="#9DD338"/>
<path d="M14.3058 0.165901C13.8843 -0.0414752 13.3065 0.281595 13.0176 0.890625C12.7287 1.49966 12.8378 2.16326 13.2594 2.37063L16.709 3.74368L17.5992 1.47564L14.3037 0.165901H14.3058Z" fill="#373938"/>
<path d="M16.711 3.84628C16.6981 3.84628 16.6853 3.84628 16.6746 3.83973L13.225 2.46668C12.7456 2.23093 12.6172 1.50402 12.9275 0.846967C13.1672 0.340533 13.6101 0 14.0296 0C14.143 0 14.25 0.0240119 14.3484 0.0742188L17.6354 1.3796C17.6611 1.39051 17.6804 1.41016 17.6911 1.43417C17.7018 1.46036 17.7018 1.48874 17.6911 1.51275L16.8008 3.78079C16.7859 3.82008 16.7473 3.84409 16.7067 3.84409L16.711 3.84628ZM14.0296 0.205193C13.685 0.205193 13.3148 0.497702 13.1073 0.934283C12.844 1.49092 12.9318 2.09341 13.302 2.27677L16.6532 3.60834L17.4685 1.53022L14.2671 0.259766C14.1879 0.220473 14.1109 0.20301 14.0274 0.20301L14.0296 0.205193Z" fill="#202121"/>
<g style="mix-blend-mode:multiply">
<path d="M14.5883 1.86639C14.0127 1.58916 13.3514 1.18314 13.1438 0.670158C13.0967 0.740011 13.0539 0.81423 13.0176 0.892815C12.7287 1.50185 12.8378 2.16545 13.2594 2.37282L16.709 3.74587L17.0364 2.912C16.204 2.59985 15.3844 2.25276 14.5883 1.86857V1.86639Z" fill="#373938"/>
<path d="M16.711 3.84628C16.6981 3.84628 16.6853 3.84628 16.6746 3.83973L13.225 2.46669C12.7456 2.23093 12.6172 1.50402 12.9275 0.84697C12.966 0.766203 13.011 0.687618 13.0623 0.611217C13.0837 0.580656 13.118 0.563193 13.1565 0.567558C13.1929 0.571924 13.225 0.595936 13.2399 0.630863C13.3962 1.01942 13.8648 1.40361 14.6352 1.7747C15.4034 2.1458 16.2231 2.49506 17.0748 2.81377C17.1004 2.82468 17.1197 2.84214 17.1325 2.86834C17.1432 2.89453 17.1432 2.92291 17.1325 2.94911L16.8051 3.78298C16.7901 3.82227 16.7516 3.84628 16.711 3.84628ZM13.1351 0.879714C13.1244 0.89936 13.1158 0.916823 13.1073 0.936469C12.844 1.49311 12.9318 2.09559 13.302 2.27896L16.6532 3.61053L16.9036 2.96875C16.0818 2.6566 15.2879 2.31825 14.5432 1.95807C13.8348 1.61535 13.3619 1.25299 13.1351 0.877531V0.879714Z" fill="#202121"/>
</g>
<path d="M17.9226 2.9884C17.6338 3.59743 17.0581 3.92268 16.6344 3.71312C16.2128 3.50356 16.1037 2.84214 16.3926 2.23311C16.6815 1.62408 17.2571 1.29883 17.6808 1.50839C18.1024 1.71576 18.2115 2.37937 17.9226 2.9884Z" fill="#A5A197"/>
<path d="M16.9102 3.87902C16.7968 3.87902 16.6898 3.85501 16.5914 3.8048C16.1184 3.57123 15.99 2.84651 16.3025 2.18727C16.5421 1.68083 16.9851 1.3403 17.4046 1.3403C17.518 1.3403 17.625 1.36431 17.7234 1.41234C18.1942 1.64591 18.3247 2.37063 18.0123 3.02987C17.7726 3.5363 17.3297 3.87684 16.9102 3.87684V3.87902ZM17.4046 1.54768C17.06 1.54768 16.6898 1.84019 16.4844 2.27895C16.2211 2.83559 16.3067 3.43807 16.6791 3.62144C16.7497 3.65636 16.8289 3.67383 16.9102 3.67383C17.2548 3.67383 17.625 3.38132 17.8325 2.94474C18.0958 2.3881 18.008 1.78561 17.6378 1.60225C17.5672 1.56732 17.488 1.54986 17.4067 1.54986L17.4046 1.54768Z" fill="#131313"/>
<path d="M18.35 3.12155C17.9584 3.94887 17.1773 4.38763 16.6038 4.10604C16.0303 3.82226 15.8848 2.92509 16.2743 2.09777C16.6659 1.27263 17.4491 0.831684 18.0205 1.11546C18.594 1.39924 18.7395 2.29641 18.3479 3.12155H18.35Z" fill="#A5A197"/>
<path d="M16.976 4.29377C16.8284 4.29377 16.6871 4.26103 16.5587 4.19773C15.936 3.88994 15.7691 2.92727 16.1842 2.05411C16.5052 1.3796 17.0916 0.927734 17.648 0.927734C17.7956 0.927734 17.9369 0.960478 18.0653 1.02378C18.3734 1.17659 18.5788 1.48656 18.6473 1.89913C18.7115 2.2986 18.6388 2.75046 18.4419 3.16739C18.123 3.84191 17.5345 4.29377 16.9781 4.29377H16.976ZM17.648 1.13293C17.1686 1.13293 16.6529 1.53895 16.3661 2.14361C16.0002 2.91636 16.1264 3.7546 16.6486 4.01436C16.7492 4.06457 16.8604 4.08858 16.9781 4.08858C17.4575 4.08858 17.9732 3.68256 18.26 3.0779C18.4397 2.69807 18.5082 2.28987 18.4483 1.93187C18.3927 1.58697 18.2258 1.32939 17.9775 1.20715C17.8769 1.15694 17.7657 1.13074 17.648 1.13074V1.13293Z" fill="#131313"/>
<path d="M18.1019 10.2378C18.1019 10.2378 20.09 6.90235 19.1334 5.34594C18.179 3.79171 16.8393 3.57342 16.8393 3.57342C16.8393 3.57342 16.2915 2.39465 17.6932 1.71795C17.6932 1.71795 23.8028 5.14074 31.8876 5.06216C31.8876 5.06216 31.9818 6.52252 31.1258 7.30618C31.1258 7.30618 26.7174 6.21473 25.4185 7.77114C24.1195 9.32755 22.5274 11.1568 22.5274 11.1568L18.1019 10.2378Z" fill="#626563"/>
<path d="M22.5275 11.2616C22.5275 11.2616 22.5147 11.2616 22.5083 11.2616L18.0828 10.3426C18.0507 10.3361 18.0229 10.3142 18.01 10.2837C17.9972 10.2531 17.9993 10.2182 18.0165 10.1898C18.0357 10.1571 19.9617 6.88925 19.0501 5.40705C18.132 3.91395 16.8373 3.68256 16.8245 3.68038C16.7924 3.67383 16.7646 3.65418 16.7496 3.62362C16.7432 3.61052 16.6019 3.29837 16.6426 2.89453C16.679 2.52125 16.8844 1.99954 17.6505 1.63063C17.6783 1.61753 17.7126 1.61753 17.7425 1.63281C17.8025 1.66556 23.788 4.96611 31.6202 4.96611C31.708 4.96611 31.7979 4.96611 31.8877 4.96611C31.9498 4.96611 31.9862 5.00758 31.9883 5.06216C31.9926 5.12328 32.0739 6.58146 31.1922 7.38913C31.1666 7.41096 31.1345 7.41969 31.1002 7.41314C31.0853 7.40878 29.5916 7.04423 28.1128 7.04423C26.8182 7.04423 25.9365 7.31273 25.4935 7.84536C24.2095 9.38431 22.6174 11.2158 22.6024 11.2332C22.5832 11.2551 22.5553 11.2682 22.5275 11.2682V11.2616ZM18.2604 10.1658L22.4911 11.0433C22.7415 10.7552 24.1689 9.10708 25.3416 7.70347C25.8252 7.125 26.7582 6.83031 28.1128 6.83031C29.4674 6.83031 30.8135 7.12718 31.096 7.19267C31.7444 6.55963 31.7914 5.49 31.7893 5.16475C31.7337 5.16475 31.6759 5.16475 31.6181 5.16475C24.0961 5.16475 18.2647 2.14143 17.689 1.83146C17.1712 2.09559 16.8844 2.45795 16.8395 2.90981C16.8138 3.17394 16.878 3.39223 16.9101 3.48392C17.1819 3.54504 18.3482 3.87902 19.217 5.29354C20.0986 6.72989 18.6156 9.53274 18.2583 10.168L18.2604 10.1658Z" fill="#202121"/>
<g style="mix-blend-mode:multiply">
<path d="M19.1333 5.34811C20.0877 6.90234 18.1018 10.24 18.1018 10.24L18.4784 10.3186C18.7331 9.77068 18.9578 9.20749 19.1461 8.62902C19.4543 7.68382 19.8309 6.64039 19.7646 5.63189C19.6832 4.392 19.0498 3.64108 18.0333 3.0255C17.7744 2.86833 17.3207 2.52125 16.9163 2.37936C16.561 2.97093 16.8371 3.57778 16.8371 3.57778C16.8371 3.57778 18.1767 3.79607 19.1311 5.3503L19.1333 5.34811Z" fill="#626563"/>
</g>
<g style="mix-blend-mode:multiply">
<path d="M27.2564 4.73472C24.5922 4.33961 22.326 3.652 20.6675 3.03205C21.9878 4.31123 23.7726 4.95301 25.6344 4.90717C26.1843 4.89407 26.7236 4.82422 27.2586 4.73472H27.2564Z" fill="#626563"/>
</g>
<g style="mix-blend-mode:multiply">
<path d="M25.2537 7.21232C23.7686 8.17498 22.6772 9.53711 21.6821 10.9822L22.5253 11.1568C22.5253 11.1568 24.1174 9.32537 25.4164 7.77114C26.7175 6.21473 31.1237 7.30618 31.1237 7.30618C31.5517 6.91326 31.7443 6.35007 31.8256 5.8873C29.5487 5.67774 27.1498 5.98334 25.2516 7.21232H25.2537Z" fill="#626563"/>
</g>
<path d="M32.6453 6.2824C32.5212 7.19049 31.907 7.85409 31.2779 7.76241C30.6487 7.67073 30.2379 6.86087 30.3641 5.95278C30.4904 5.0447 31.1024 4.38109 31.7316 4.47277C32.3628 4.56446 32.7716 5.37431 32.6453 6.2824Z" fill="#A5A197"/>
<path d="M31.3934 7.87374C31.3506 7.87374 31.3078 7.87155 31.265 7.865C30.5802 7.76677 30.1308 6.90234 30.2656 5.93968C30.3983 4.98139 31.0531 4.27413 31.7486 4.37236C32.4334 4.47059 32.8806 5.33502 32.748 6.29768C32.6238 7.19704 32.0418 7.87374 31.3955 7.87374H31.3934ZM31.6159 4.56882C31.0788 4.56882 30.5716 5.1844 30.4625 5.96806C30.3448 6.81939 30.7171 7.57904 31.2906 7.66199C31.8663 7.74494 32.4291 7.10317 32.5447 6.2693C32.6624 5.41797 32.29 4.65832 31.7165 4.57537C31.6823 4.571 31.648 4.56882 31.6138 4.56882H31.6159Z" fill="#131313"/>
<path d="M32.0588 4.96174C31.5944 4.89626 31.1408 5.38304 31.0487 6.0532C30.9567 6.72335 31.2585 7.32146 31.7228 7.38695L35.4207 7.61834L35.5898 5.18003L32.0588 4.96174Z" fill="#373938"/>
<path d="M35.4206 7.72093H35.4142L31.7163 7.48954C31.1899 7.41533 30.8497 6.76482 30.9481 6.0401C31.0487 5.31974 31.5451 4.78493 32.0716 4.86133L35.594 5.07962C35.6196 5.07962 35.6453 5.09272 35.6646 5.11454C35.6817 5.13419 35.6903 5.16257 35.6903 5.18876L35.5212 7.62707C35.5169 7.68164 35.4741 7.72312 35.4206 7.72312V7.72093ZM31.9731 5.05779C31.5879 5.05779 31.2263 5.50092 31.1471 6.06629C31.0637 6.67969 31.3269 7.22541 31.7356 7.28435L35.3243 7.50919L35.4784 5.27608L32.0502 5.06434C32.0181 5.05997 31.9945 5.05779 31.971 5.05779H31.9731Z" fill="#202121"/>
<g style="mix-blend-mode:multiply">
<path d="M33.9055 5.65809C33.578 5.94841 33.2271 6.23219 32.7927 6.32169C32.2085 6.43957 31.6243 6.41337 31.04 6.38499C31.0679 6.90889 31.3396 7.33238 31.7248 7.38695L35.4227 7.61834L35.5918 5.18003L34.693 5.12328C34.4233 5.25862 34.1644 5.43107 33.9097 5.6559L33.9055 5.65809Z" fill="#373938"/>
<path d="M35.4207 7.72094H35.4143L31.7164 7.48955C31.2863 7.42843 30.9696 6.97657 30.9375 6.38936C30.9375 6.36099 30.9461 6.33261 30.9675 6.31078C30.9867 6.29113 31.0167 6.27585 31.0445 6.28022C31.3141 6.29332 31.5559 6.30423 31.7978 6.30423C32.1744 6.30423 32.4847 6.27804 32.7736 6.2191C33.1866 6.13615 33.5269 5.85673 33.8414 5.57951C34.094 5.35685 34.3572 5.17785 34.6461 5.0316C34.661 5.02287 34.6803 5.0185 34.6974 5.02068L35.5962 5.07744C35.6219 5.07744 35.6476 5.09054 35.6668 5.11236C35.684 5.13201 35.6925 5.16039 35.6925 5.18658L35.5235 7.62489C35.5192 7.67946 35.4764 7.72094 35.4229 7.72094H35.4207ZM31.1494 6.49196C31.205 6.92199 31.4361 7.24288 31.7357 7.28435L35.3244 7.50919L35.4785 5.27608L34.7081 5.22806C34.4428 5.3634 34.201 5.5293 33.9698 5.73449C33.636 6.02918 33.2701 6.32606 32.81 6.41992C32.5082 6.48105 32.1851 6.50942 31.7956 6.50942C31.5838 6.50942 31.3741 6.50069 31.1494 6.48978V6.49196Z" fill="#202121"/>
</g>
<path d="M36.3495 6.52034C36.2575 7.19049 35.8038 7.67946 35.3416 7.61179C34.8751 7.54412 34.5755 6.94819 34.6675 6.27804C34.7616 5.60789 35.2132 5.11892 35.6775 5.18659C36.1441 5.25426 36.4437 5.85019 36.3516 6.52034H36.3495Z" fill="#373938"/>
<path d="M35.4251 7.72093C35.393 7.72093 35.3587 7.72093 35.3266 7.71438C34.8066 7.64017 34.4664 6.98966 34.5669 6.26494C34.6675 5.5424 35.164 5.00977 35.6904 5.08617C36.2083 5.16039 36.5485 5.81089 36.4501 6.53562C36.356 7.21232 35.9173 7.72093 35.4272 7.72093H35.4251ZM35.5898 5.28481C35.2068 5.28481 34.8451 5.72794 34.766 6.29331C34.6825 6.90671 34.9457 7.45244 35.3544 7.51137C35.7632 7.57031 36.1676 7.10754 36.249 6.50724C36.3324 5.89384 36.0692 5.34812 35.6605 5.28918C35.6369 5.28481 35.6134 5.28481 35.5898 5.28481Z" fill="#202121"/>
<path d="M22.645 5.18004L24.1772 4.12351L25.3306 4.46623L21.5472 11.7637L21.376 8.6705L22.645 5.18004Z" fill="#A5A197"/>
<path d="M21.5474 11.8663C21.5474 11.8663 21.5324 11.8663 21.526 11.8641C21.481 11.8554 21.4489 11.8161 21.4468 11.7702L21.2734 8.67705C21.2734 8.66395 21.2734 8.64867 21.2799 8.63557L22.551 5.14511C22.5574 5.12546 22.5724 5.108 22.5895 5.0949L24.1196 4.03838C24.1453 4.02091 24.1752 4.01655 24.2052 4.02528L25.3608 4.36799C25.3907 4.37673 25.4143 4.39855 25.425 4.42693C25.4357 4.45531 25.4357 4.48805 25.4207 4.51425L21.6372 11.8117C21.6201 11.8466 21.5859 11.8663 21.5474 11.8663ZM21.4767 8.68578L21.6287 11.3882L25.1853 4.52735L24.1945 4.23484L22.7286 5.24552L21.4767 8.6836V8.68578Z" fill="#131313"/>
<path d="M16.3599 10.2902C16.3599 10.2902 19.1525 6.72989 22.5037 3.54722L24.1772 4.1235C24.1772 4.1235 22.5101 7.79515 21.1812 12.0344L16.3599 10.288V10.2902Z" fill="#203F8E"/>
<path d="M21.1815 12.1369C21.1708 12.1369 21.1579 12.1369 21.1472 12.1304L16.3259 10.3841C16.2959 10.3732 16.2724 10.347 16.2617 10.3164C16.2531 10.2837 16.2617 10.2509 16.2788 10.2247C16.3066 10.1898 19.1142 6.62293 22.4312 3.47082C22.459 3.44462 22.4975 3.43589 22.5318 3.44899L24.2052 4.02527C24.233 4.03401 24.2544 4.05584 24.2651 4.08203C24.2758 4.10822 24.2758 4.13879 24.2651 4.16498C24.248 4.20209 22.5853 7.88028 21.2735 12.0649C21.2649 12.0911 21.2478 12.1129 21.2221 12.126C21.2071 12.1326 21.1921 12.1369 21.1772 12.1369H21.1815ZM16.527 10.2422L21.1151 11.9034C22.3028 8.14005 23.7601 4.80894 24.0383 4.18463L22.5275 3.6651C19.5701 6.47886 17.0278 9.61569 16.527 10.2422Z" fill="#202121"/>
<g style="mix-blend-mode:screen">
<path d="M18.4378 9.3472C18.7117 8.54825 19.1183 7.85627 19.5934 7.26034C20.5028 5.90039 21.6392 4.70416 22.9553 3.7022L22.5037 3.54722C19.1547 6.72771 16.3599 10.2902 16.3599 10.2902L18.1703 9.98024C18.2537 9.76631 18.3436 9.55675 18.4378 9.34938V9.3472Z" fill="#373938"/>
</g>
<path d="M2.78857 31.6237C2.78857 31.6237 6.76036 35.673 7.90738 36.1271C7.90738 36.1271 15.2282 40.3685 27.3554 35.7167C27.3554 35.7167 49.686 25.9809 50.5698 23.3986C51.4536 20.814 52.0978 17.5178 52.0978 17.5178L2.78857 31.6237Z" fill="#5F6260"/>
<path d="M16.3922 38C10.9973 38 7.89009 36.2362 7.858 36.2166C6.71739 35.7669 2.88042 31.8639 2.71779 31.698C2.69211 31.6718 2.68141 31.6347 2.69211 31.5997C2.70067 31.5648 2.72849 31.5364 2.76273 31.5277L52.0741 17.4218C52.1083 17.413 52.1447 17.4218 52.1704 17.4458C52.196 17.4698 52.2067 17.5069 52.2003 17.5418C52.1939 17.5746 51.5433 20.8751 50.6681 23.4357C49.78 26.0311 28.3118 35.4154 27.3981 35.8149C23.6125 37.2666 19.9103 38.0022 16.3943 38.0022L16.3922 38ZM2.981 31.6761C3.65723 32.3594 6.93995 35.6359 7.94359 36.031C7.98639 36.055 11.0551 37.7926 16.3901 37.7926C19.8825 37.7926 23.559 37.0614 27.3189 35.6206C27.5372 35.5246 49.6131 25.8762 50.4734 23.3636C51.2331 21.1436 51.8237 18.3604 51.9649 17.6619L2.981 31.6761Z" fill="#202121"/>
<path d="M2.51875 29.0588L0.100586 29.3404C0.100586 29.3404 0.286763 32.2917 1.65848 32.582C3.0302 32.8724 8.47643 35.1535 14.3292 34.2891C20.1821 33.4246 43.0241 23.6823 43.0241 23.6823C43.0241 23.6823 53.6277 19.4628 53.8502 16.0902L2.51875 29.0588Z" fill="#F82C34"/>
<path d="M11.6049 34.5859C7.87277 34.5859 4.5494 33.5578 2.76252 33.0077C2.27033 32.8549 1.88299 32.7348 1.6369 32.6824C0.207398 32.379 0.00838087 29.4714 -0.000179014 29.347C-0.00445895 29.2924 0.0362005 29.2444 0.0896997 29.2378L2.50787 28.9562L53.8265 15.992C53.8586 15.9832 53.8907 15.992 53.9164 16.0138C53.9399 16.0356 53.9549 16.0662 53.9527 16.0989C53.728 19.4977 43.4968 23.6059 43.0624 23.7784C42.8356 23.8744 20.1434 33.5338 14.3462 34.3895C13.4688 34.5183 12.5486 34.5838 11.6092 34.5838L11.6049 34.5859ZM0.209538 29.4321C0.256617 29.9364 0.534813 32.2393 1.6797 32.4816C1.93435 32.5362 2.32597 32.6563 2.82244 32.8091C4.59862 33.357 7.90273 34.3786 11.6049 34.3807C12.5336 34.3807 13.4453 34.3153 14.3141 34.1887C20.0877 33.3373 42.7564 23.6867 42.9833 23.5907C43.0903 23.5492 53.2337 19.4759 53.7323 16.2277L2.54211 29.1592L0.209538 29.4321Z" fill="#B42129"/>
<path d="M7.32046 22.1128C7.32046 22.1128 0.0681043 27.3714 0.100204 29.3404C0.132303 31.3094 8.01381 33.7761 15.2041 32.7086C22.3944 31.639 51.3996 19.4846 53.3726 17.007C55.3457 14.5294 51.6392 12.1762 44.3612 12.2941C37.0832 12.412 7.31832 22.1128 7.31832 22.1128H7.32046Z" fill="#7C7F7D"/>
<path d="M11.5854 33.0688C5.87598 33.0688 0.0295814 31.1871 -0.000378154 29.3426C-0.0324777 27.3409 6.96308 22.246 7.26054 22.0299C7.2691 22.0233 7.27766 22.019 7.28836 22.0146C7.36326 21.9906 14.8275 19.561 23.0835 17.1489C30.7082 14.9201 40.5906 12.2526 44.3612 12.1915C44.5367 12.1893 44.7122 12.1871 44.8834 12.1871C49.6041 12.1871 53.0324 13.2524 53.8327 14.966C54.1451 15.6383 54.0146 16.3652 53.4497 17.0725C51.3289 19.7378 22.0285 31.7984 15.2191 32.8112C14.0614 32.9837 12.8394 33.071 11.5854 33.071V33.0688ZM7.3654 22.2067C7.023 22.4555 0.170819 27.4828 0.200779 29.3404C0.226459 30.8946 5.59136 32.8658 11.5854 32.8658C12.8287 32.8658 14.0421 32.7785 15.1891 32.6082C22.6619 31.4971 51.406 19.3143 53.2934 16.9437C53.8113 16.2932 53.9311 15.658 53.6487 15.0555C52.8933 13.4401 49.4522 12.3945 44.8812 12.3945C44.71 12.3945 44.5367 12.3945 44.3633 12.3989C37.2479 12.5146 8.17431 21.9447 7.3654 22.2089V22.2067Z" fill="#202121"/>
<g style="mix-blend-mode:multiply">
<path d="M1.91316 28.0656C2.32831 29.1571 3.40044 29.6504 4.37626 30.1066C6.77731 31.2243 9.40091 31.9337 12.0481 32.021C17.3381 32.1978 22.2793 29.8927 27.199 28.2315C32.3072 26.507 37.3254 24.4878 42.3286 22.4752C44.8024 21.4798 47.227 20.3796 49.673 19.3165C51.6546 18.2949 52.9985 17.4763 53.373 17.007C55.3461 14.5294 51.6396 12.1762 44.3616 12.2941C37.0836 12.412 7.31872 22.1128 7.31872 22.1128C7.31872 22.1128 4.05527 24.4791 1.91744 26.6336C1.77406 27.1182 1.73768 27.6094 1.91102 28.0656H1.91316Z" fill="#C4C0B8"/>
</g>
<path d="M6.96147 21.1C6.96147 21.1 1.56874 26.3586 1.90258 28.2424C2.23641 30.1263 10.2463 31.7744 13.7901 31.5408C17.3318 31.305 36.354 23.8417 36.354 23.8417C36.354 23.8417 52.3566 17.3323 52.7953 15.8282C53.2362 14.3242 48.2907 12.0496 42.746 12.2898L6.96147 21.1Z" fill="#C4C0B8"/>
<path d="M13.056 31.6652C9.50581 31.6652 2.14859 30.1939 1.80406 28.2599C1.4638 26.3455 6.67035 21.2418 6.89077 21.0257C6.90361 21.0126 6.91859 21.0039 6.93571 20.9995L42.7203 12.1893C43.0092 12.1741 43.2852 12.1697 43.5592 12.1697C47.9247 12.1697 51.6868 13.6213 52.6711 14.9682C52.9001 15.2803 52.975 15.5794 52.8937 15.8588C52.4443 17.3934 37.0472 23.6714 36.3924 23.9377C35.6134 24.2433 17.3146 31.4098 13.7986 31.6434C13.5718 31.6587 13.3235 31.6652 13.0582 31.6652H13.056ZM7.0106 21.1938C6.65751 21.5431 1.69064 26.4721 2.00094 28.225C2.29197 29.8621 9.20621 31.46 13.0539 31.46C13.315 31.46 13.5589 31.4535 13.7815 31.4382C17.2675 31.2068 36.1249 23.822 36.3154 23.7456C40.7537 21.9404 52.348 16.9939 52.6968 15.7999C52.7589 15.5859 52.6968 15.348 52.5064 15.0904C51.5477 13.7785 47.7235 12.3749 43.557 12.3749C43.2874 12.3749 43.0135 12.3814 42.746 12.3923L7.0106 21.1938Z" fill="#131313"/>
<g style="mix-blend-mode:multiply">
<path d="M42.7456 12.2898L6.96098 21.1C6.96098 21.1 6.28047 21.7657 5.41806 22.7044C5.23617 23.0318 3.25242 28.3668 6.62287 28.9322C8.53814 29.2531 10.6439 29.5631 12.5741 29.4758C13.6505 29.4256 14.7098 29.2684 15.7755 29.133C16.8883 28.9912 19.4049 28.5109 19.2594 28.6594C18.7651 29.1592 18.1359 29.299 17.511 29.5587C16.6893 29.8971 15.859 30.2092 15.0073 30.4581C13.276 30.9623 11.5255 31.3094 9.71512 31.2788C9.68944 31.2788 9.66376 31.2767 9.63594 31.2767C11.2067 31.508 12.7068 31.6128 13.7896 31.5408C17.3313 31.305 36.3535 23.8417 36.3535 23.8417C36.3535 23.8417 52.3562 17.3323 52.7949 15.8282C53.2357 14.3242 48.2902 12.0496 42.7456 12.2898Z" fill="#C4C0B8"/>
</g>
<g style="mix-blend-mode:multiply">
<path d="M5.43142 30.3511C5.15964 30.2507 4.88787 30.1459 4.61609 30.039C4.16884 29.86 3.6959 29.705 3.25293 29.5085C3.8457 29.8141 4.59469 30.0979 5.43142 30.3533V30.3511Z" fill="#C4C0B8"/>
<path d="M5.4312 30.4537C5.4312 30.4537 5.41194 30.4537 5.40338 30.4493C4.51957 30.1808 3.78128 29.8949 3.20777 29.598C3.15855 29.574 3.13929 29.5129 3.16283 29.4627C3.18637 29.4125 3.24415 29.3906 3.29337 29.4125C3.56086 29.5303 3.8412 29.6351 4.11511 29.7377C4.29701 29.8054 4.47677 29.8731 4.65439 29.9429C4.92616 30.0521 5.1958 30.1547 5.46757 30.2551C5.51893 30.2747 5.54675 30.3315 5.52963 30.3839C5.51465 30.4275 5.47613 30.4537 5.43334 30.4537H5.4312Z" fill="#131313"/>
</g>
<path d="M9.03257 20.2028C9.03257 20.2028 4.90884 24.6821 5.20844 26.3738C5.51018 28.0656 5.03082 28.9628 13.6677 28.8384C16.8563 28.7925 35.4398 22.6651 35.4398 22.6651C35.4398 22.6651 50.9011 16.5006 51.297 15.1494C51.6929 13.7981 46.1632 12.0715 41.1813 12.2876L9.03257 20.2028Z" fill="#373938"/>
<path d="M12.1976 28.954C5.7734 28.954 5.39891 28.2686 5.16137 26.7166C5.14425 26.6118 5.12927 26.5048 5.11001 26.3935C4.80399 24.6712 8.79076 20.3185 8.95982 20.1351C8.97266 20.1198 8.98978 20.1111 9.00904 20.1067L41.1599 12.1893C41.4617 12.1741 41.7549 12.1675 42.0459 12.1675C45.9513 12.1675 50.3361 13.3048 51.2478 14.5512C51.404 14.7652 51.4532 14.9769 51.3933 15.1799C50.9952 16.5399 37.0619 22.1303 35.4762 22.7633C34.7122 23.0165 16.837 28.8995 13.6678 28.9431C13.1435 28.9497 12.6555 28.954 12.1976 28.954ZM9.08607 20.2966C8.77364 20.6394 5.03083 24.7934 5.30689 26.3564C5.32615 26.4699 5.34327 26.579 5.36039 26.6838C5.56368 28.0154 5.67496 28.7488 12.1976 28.7488C12.6555 28.7488 13.1435 28.7445 13.6656 28.7379C16.8028 28.6943 35.2237 22.6302 35.4077 22.569C41.5986 20.1002 50.9203 16.0771 51.2007 15.121C51.2413 14.9813 51.205 14.835 51.0873 14.6735C50.3105 13.6082 46.191 12.3727 42.0459 12.3727C41.7549 12.3727 41.4681 12.3793 41.1878 12.3902L9.08607 20.2966Z" fill="#202121"/>
<path d="M9.93786 23.8417L9.24023 27.6072C9.24023 27.6072 12.7177 29.061 20.1798 26.5921C27.6418 24.1233 49.7306 16.1731 50.4839 15.1232C50.4839 15.1232 51.0253 14.7804 50.5909 14.1649L24.7743 23.7631C24.7743 23.7631 21.0636 25.3457 21.9495 21.9185C22.9018 18.2382 23.5952 17.2144 23.5952 17.2144L9.93572 23.8439L9.93786 23.8417Z" fill="#F82C34"/>
<path d="M12.3732 28.1355C10.2632 28.1355 9.24674 27.7207 9.20394 27.7032C9.159 27.6858 9.13332 27.6377 9.14402 27.5897L9.84165 23.8242C9.84807 23.7915 9.86733 23.7653 9.89729 23.75L23.5567 17.1205C23.5974 17.1009 23.6466 17.1118 23.6766 17.1467C23.7065 17.1816 23.7087 17.234 23.683 17.2711C23.6766 17.2821 22.9853 18.3342 22.0523 21.9447C21.849 22.7262 21.8768 23.296 22.1336 23.6365C22.3284 23.8963 22.6643 24.0272 23.133 24.0272C23.8948 24.0272 24.7316 23.6736 24.7401 23.6714L50.561 14.071C50.6017 14.0557 50.6509 14.071 50.6766 14.1081C50.8328 14.3308 50.8927 14.5469 50.852 14.7542C50.8028 15.0096 50.6124 15.1625 50.5567 15.2017C49.5638 16.3652 26.9721 24.4573 20.2141 26.6926C17.3166 27.6508 14.678 28.1376 12.3754 28.1376L12.3732 28.1355ZM9.35588 27.5395C9.62765 27.6334 10.627 27.9281 12.3711 27.9281C14.6523 27.9281 17.2695 27.4457 20.1499 26.4917C28.2475 23.8133 49.7007 16.0378 50.4048 15.0577C50.4133 15.0468 50.4219 15.038 50.4326 15.0315C50.4326 15.0315 50.6124 14.9136 50.653 14.704C50.6787 14.5753 50.6445 14.4334 50.5524 14.2849L24.8107 23.857C24.7786 23.8701 23.9312 24.2281 23.1287 24.2281C22.5959 24.2281 22.2064 24.0709 21.971 23.7565C21.6757 23.3636 21.635 22.7349 21.8554 21.888C22.5424 19.2314 23.0923 17.9566 23.3513 17.4414L10.0278 23.9093L9.35374 27.5373L9.35588 27.5395Z" fill="#B42129"/>
<g style="mix-blend-mode:multiply" opacity="0.5">
<path d="M14.6094 26.5223C16.499 25.3806 18.2666 24.0207 19.9101 22.5385C20.7897 21.7439 21.6456 20.9166 22.4759 20.0565C23.1479 17.8736 23.5973 17.21 23.5973 17.21L9.93786 23.8395L9.24023 27.605C9.24023 27.605 9.93786 27.8953 11.3695 27.9958C12.508 27.6683 13.6015 27.1291 14.6073 26.5223H14.6094Z" fill="#06688E"/>
</g>
<path d="M50.5929 14.1627L45.5961 12.7067L20.4514 20.1286C20.4514 20.1286 19.4478 25.2868 20.7189 25.2868C21.9901 25.2868 50.5951 14.1627 50.5951 14.1627H50.5929Z" fill="#5F6260"/>
<path d="M20.7168 25.3915C20.552 25.3915 20.4108 25.3217 20.2995 25.182C19.5569 24.2586 20.3188 20.2792 20.353 20.1111C20.3594 20.074 20.3872 20.0434 20.4236 20.0325L45.5683 12.6106C45.5854 12.6063 45.6068 12.6063 45.6239 12.6106L50.6207 14.0666C50.6635 14.0775 50.6914 14.1168 50.6935 14.1605C50.6935 14.2042 50.67 14.2456 50.6293 14.2609C49.4609 14.715 21.9922 25.3915 20.7168 25.3915ZM20.537 20.2115C20.4429 20.7223 19.8159 24.2586 20.4536 25.051C20.5263 25.1427 20.6141 25.1863 20.7168 25.1863C21.699 25.1863 40.3125 18.0504 50.2741 14.1801L45.5961 12.8158L20.5392 20.2115H20.537Z" fill="#202121"/>
<path d="M45.0593 8.17279H47.4453C47.4453 8.17279 47.7385 9.42359 47.3341 10.0173C46.9296 10.6111 46.6343 13.7479 46.6343 13.7479L37.1606 17.2428L38.0766 10.8228L45.0593 8.17279Z" fill="#A5A197"/>
<path d="M37.1605 17.3454C37.1369 17.3454 37.1155 17.3366 37.0963 17.3213C37.0685 17.2995 37.0556 17.2624 37.0599 17.2275L37.9758 10.8076C37.9801 10.7705 38.0058 10.7399 38.04 10.7268L45.0227 8.07675C45.0334 8.07238 45.0463 8.0702 45.057 8.0702H47.443C47.4901 8.0702 47.5308 8.10294 47.5415 8.14878C47.5543 8.20117 47.8389 9.45198 47.4152 10.0763C47.0963 10.5456 46.816 12.8922 46.7326 13.7567C46.7283 13.796 46.7026 13.8309 46.6662 13.844L37.1926 17.3388C37.1819 17.3432 37.169 17.3454 37.1583 17.3454H37.1605ZM38.1684 10.8971L37.2846 17.0878L46.5421 13.6715C46.587 13.2066 46.8674 10.5238 47.2526 9.95623C47.5714 9.48909 47.4195 8.55044 47.366 8.27321H45.0805L38.1705 10.8949L38.1684 10.8971Z" fill="#131313"/>
<path d="M33.6851 11.1961L34.0489 10.0239C34.0489 10.0239 36.4456 10.3448 37.7317 8.96301C39.0179 7.58123 39.5785 6.0794 42.0481 6.0532C44.5176 6.02701 48.789 7.6882 47.0342 8.62466C40.6442 12.0409 39.3988 15.0249 37.1604 17.2428L33.6851 11.1961Z" fill="#373938"/>
<path d="M37.1604 17.3454C37.1604 17.3454 37.1519 17.3454 37.1476 17.3454C37.1176 17.341 37.0898 17.3235 37.0748 17.2952L33.5995 11.2485C33.5845 11.2245 33.5824 11.1939 33.5909 11.1656L33.9547 9.99334C33.9697 9.94532 34.0147 9.91694 34.0639 9.9213C34.066 9.9213 34.3036 9.95186 34.6631 9.95186C35.4142 9.95186 36.803 9.81434 37.6612 8.88879C37.9287 8.60065 38.1662 8.30595 38.3952 8.02218C39.2833 6.91981 40.0494 5.96806 42.0481 5.94842H42.1059C44.0982 5.94842 47.2996 7.02677 47.5328 7.99598C47.5799 8.18808 47.5393 8.46967 47.0813 8.71416C42.3284 11.2551 40.3982 13.5973 38.8488 15.479C38.3117 16.1317 37.8024 16.7494 37.2332 17.3148C37.2139 17.3344 37.1882 17.3432 37.1626 17.3432L37.1604 17.3454ZM33.7942 11.183L37.1818 17.0769C37.7082 16.5442 38.1876 15.9614 38.6926 15.348C40.2548 13.4532 42.1979 11.0935 46.9872 8.53298C47.4002 8.3125 47.351 8.11168 47.336 8.04619C47.1391 7.23415 44.1581 6.15579 42.1037 6.15579H42.0481C40.1435 6.17544 39.4052 7.09226 38.5493 8.15533C38.3181 8.44348 38.0785 8.74035 37.8045 9.03286C36.8929 10.013 35.442 10.1592 34.6588 10.1592C34.4106 10.1592 34.2201 10.1461 34.1174 10.1352L33.7921 11.183H33.7942Z" fill="#202121"/>
<path d="M33.6851 11.1961L34.0489 10.0239C34.0489 10.0239 36.4456 10.3448 37.7317 8.96301C39.0179 7.58123 39.5785 6.0794 42.0481 6.0532C44.5176 6.02701 48.789 7.6882 47.0342 8.62466C40.6442 12.0409 39.3988 15.0249 37.1604 17.2428L33.6851 11.1961Z" fill="#373938"/>
<path d="M37.1604 17.3454C37.1604 17.3454 37.1519 17.3454 37.1476 17.3454C37.1176 17.341 37.0898 17.3235 37.0748 17.2952L33.5995 11.2485C33.5845 11.2245 33.5824 11.1939 33.5909 11.1656L33.9547 9.99334C33.9697 9.94532 34.0147 9.91694 34.0639 9.9213C34.066 9.9213 34.3036 9.95186 34.6631 9.95186C35.4142 9.95186 36.803 9.81434 37.6612 8.88879C37.9287 8.60065 38.1662 8.30595 38.3952 8.02218C39.2833 6.91981 40.0494 5.96806 42.0481 5.94842H42.1059C44.0982 5.94842 47.2996 7.02677 47.5328 7.99598C47.5799 8.18808 47.5393 8.46967 47.0813 8.71416C42.3284 11.2551 40.3982 13.5973 38.8488 15.479C38.3117 16.1317 37.8024 16.7494 37.2332 17.3148C37.2139 17.3344 37.1882 17.3432 37.1626 17.3432L37.1604 17.3454ZM33.7942 11.183L37.1818 17.0769C37.7082 16.5442 38.1876 15.9614 38.6926 15.348C40.2548 13.4532 42.1979 11.0935 46.9872 8.53298C47.4002 8.3125 47.351 8.11168 47.336 8.04619C47.1391 7.23415 44.1581 6.15579 42.1037 6.15579H42.0481C40.1435 6.17544 39.4052 7.09226 38.5493 8.15533C38.3181 8.44348 38.0785 8.74035 37.8045 9.03286C36.8929 10.013 35.442 10.1592 34.6588 10.1592C34.4106 10.1592 34.2201 10.1461 34.1174 10.1352L33.7921 11.183H33.7942Z" fill="#202121"/>
<g style="mix-blend-mode:screen">
<path d="M37.9396 9.31882C38.8106 8.65086 39.3499 7.62926 40.2658 7.02896C41.5519 6.18854 42.8787 6.14052 44.2312 6.33916C43.4736 6.1558 42.6968 6.04447 42.0462 6.05102C39.5767 6.07721 39.0182 7.57905 37.7299 8.96083C37.0195 9.72484 35.9709 9.96715 35.1748 10.0326C36.11 10.2444 37.0986 9.9606 37.9375 9.31664L37.9396 9.31882Z" fill="#626563"/>
</g>
<g style="mix-blend-mode:multiply">
<path d="M43.604 9.21841C42.6068 9.90384 41.4127 11.1154 40.1052 11.0499C38.8747 10.9887 37.9566 10.0174 36.7604 9.80343C36.6705 9.78815 36.5785 9.77287 36.4843 9.75977C35.3031 10.1898 34.0469 10.0239 34.0469 10.0239L33.6831 11.1961L37.1584 17.2428C39.3968 15.0249 40.6423 12.0409 47.0322 8.62466C47.3682 8.44566 47.4816 8.24047 47.4324 8.02436C46.0842 8.13787 44.7253 8.44784 43.604 9.21841Z" fill="#373938"/>
</g>
<path d="M21.1494 11.6C21.1494 11.6 25.4593 14.8023 27.2056 13.9444C28.9518 13.0865 31.4748 11.0018 32.3008 10.3295C33.1268 9.65499 36.8889 10.109 37.7941 11.3882C38.6972 12.6674 37.1628 17.245 37.1628 17.245C37.1628 17.245 31.2651 19.5261 28.6672 20.6503C26.0692 21.7745 20.3833 23.2567 20.7364 21.3859C21.0895 19.5152 21.1516 11.6 21.1516 11.6H21.1494Z" fill="#373938"/>
<path d="M22.1464 22.3791C21.4467 22.3791 20.9801 22.2416 20.7619 21.9731C20.6313 21.8116 20.5885 21.6086 20.6335 21.3663C20.9823 19.5261 21.0465 11.6785 21.0486 11.6C21.0486 11.5607 21.07 11.5257 21.1043 11.5083C21.1385 11.4908 21.1792 11.4952 21.2091 11.517C21.2434 11.541 24.556 13.9881 26.4906 13.9881C26.7516 13.9881 26.9785 13.9422 27.1625 13.8527C28.8253 13.0341 31.2242 11.0782 32.1273 10.3404L32.2385 10.2487C32.5017 10.0326 33.041 9.91476 33.7558 9.91476C35.2901 9.91476 37.2503 10.443 37.8752 11.3271C38.7997 12.6347 37.321 17.0878 37.2568 17.2755C37.2482 17.3039 37.2247 17.3279 37.1968 17.3388C37.1391 17.3606 31.2713 19.6309 28.7033 20.742C26.8865 21.5278 23.8627 22.377 22.1464 22.377V22.3791ZM21.2476 11.7964C21.2348 13.056 21.1556 19.6876 20.8325 21.4034C20.7983 21.5846 20.8261 21.7265 20.9181 21.84C21.0936 22.0583 21.5194 22.1718 22.1464 22.1718C23.837 22.1718 26.8265 21.3313 28.6241 20.5521C31.0744 19.4912 36.5292 17.3759 37.0791 17.162C37.2354 16.6839 38.5258 12.6019 37.7104 11.445C37.1305 10.6242 35.2045 10.1178 33.7536 10.1178C33.0945 10.1178 32.5873 10.2225 32.3626 10.4059L32.2514 10.4976C31.344 11.2376 28.9323 13.2066 27.2481 14.0339C27.0363 14.1387 26.7816 14.1911 26.4884 14.1911C24.7144 14.1911 21.9431 12.2941 21.2476 11.7964Z" fill="#202121"/>
<path d="M21.1494 11.6C21.1494 11.6 25.4593 14.8023 27.2056 13.9444C28.9518 13.0865 31.4748 11.0018 32.3008 10.3295C33.1268 9.65499 36.8889 10.109 37.7941 11.3882C38.6972 12.6674 37.1628 17.245 37.1628 17.245C37.1628 17.245 31.2651 19.5261 28.6672 20.6503C26.0692 21.7745 20.3833 23.2567 20.7364 21.3859C21.0895 19.5152 21.1516 11.6 21.1516 11.6H21.1494Z" fill="#373938"/>
<path d="M22.1464 22.3791C21.4467 22.3791 20.9801 22.2416 20.7619 21.9731C20.6313 21.8116 20.5885 21.6086 20.6335 21.3663C20.9823 19.5261 21.0465 11.6785 21.0486 11.6C21.0486 11.5607 21.07 11.5257 21.1043 11.5083C21.1385 11.4908 21.1792 11.4952 21.2091 11.517C21.2434 11.541 24.556 13.9881 26.4906 13.9881C26.7516 13.9881 26.9785 13.9422 27.1625 13.8527C28.8253 13.0341 31.2242 11.0782 32.1273 10.3404L32.2385 10.2487C32.5017 10.0326 33.041 9.91476 33.7558 9.91476C35.2901 9.91476 37.2503 10.443 37.8752 11.3271C38.7997 12.6347 37.321 17.0878 37.2568 17.2755C37.2482 17.3039 37.2247 17.3279 37.1968 17.3388C37.1391 17.3606 31.2713 19.6309 28.7033 20.742C26.8865 21.5278 23.8627 22.377 22.1464 22.377V22.3791ZM21.2476 11.7964C21.2348 13.056 21.1556 19.6876 20.8325 21.4034C20.7983 21.5846 20.8261 21.7265 20.9181 21.84C21.0936 22.0583 21.5194 22.1718 22.1464 22.1718C23.837 22.1718 26.8265 21.3313 28.6241 20.5521C31.0744 19.4912 36.5292 17.3759 37.0791 17.162C37.2354 16.6839 38.5258 12.6019 37.7104 11.445C37.1305 10.6242 35.2045 10.1178 33.7536 10.1178C33.0945 10.1178 32.5873 10.2225 32.3626 10.4059L32.2514 10.4976C31.344 11.2376 28.9323 13.2066 27.2481 14.0339C27.0363 14.1387 26.7816 14.1911 26.4884 14.1911C24.7144 14.1911 21.9431 12.2941 21.2476 11.7964Z" fill="#202121"/>
<g style="mix-blend-mode:screen">
<path d="M31.802 11.2048C33.0732 10.515 34.37 10.168 35.6946 10.264C34.34 9.92348 32.795 9.92348 32.3006 10.3273C31.4746 10.9997 28.9516 13.0843 27.2054 13.9422C27.0727 14.0077 26.9208 14.047 26.7603 14.0688C28.5942 14.0819 30.2655 12.0365 31.802 11.2048Z" fill="#626563"/>
</g>
<g style="mix-blend-mode:multiply">
<path d="M32.7392 16.0378C31.7933 16.4678 30.5607 17.0507 29.6662 16.1884C29.0499 15.5969 28.7011 14.7608 27.9435 14.3155C27.6974 14.1692 27.4385 14.0535 27.1753 13.9553C25.4098 14.7652 21.1491 11.6 21.1491 11.6C21.1491 11.6 21.0871 19.5152 20.734 21.3859C20.3809 23.2567 26.0668 21.7745 28.6647 20.6503C31.2626 19.5261 37.1604 17.245 37.1604 17.245C37.1604 17.245 38.4508 13.3987 37.9672 11.7746C37.2139 14.0732 34.9498 15.038 32.7392 16.04V16.0378Z" fill="#373938"/>
</g>
<path d="M26.7516 14.071C24.8128 14.3199 21.1491 11.5978 21.1491 11.5978C21.1491 11.5978 21.0871 19.513 20.734 21.3837C20.4344 22.9707 24.4811 22.1434 27.3037 21.1698C28.3951 19.5676 30.0022 15.121 26.7516 14.071Z" fill="#F82C34"/>
<path d="M22.1464 22.377C21.4467 22.377 20.9801 22.2394 20.7619 21.9709C20.6313 21.8094 20.5885 21.6064 20.6335 21.3641C20.9823 19.5239 21.0465 11.6764 21.0486 11.5978C21.0486 11.5585 21.07 11.5236 21.1043 11.5061C21.1385 11.4886 21.1792 11.493 21.2091 11.5148C21.2434 11.5388 24.556 13.9837 26.4884 13.9837C26.5762 13.9837 26.6596 13.9793 26.7388 13.9684C26.7538 13.9662 26.7666 13.9684 26.7816 13.9728C27.7018 14.2696 28.3117 14.8525 28.5963 15.706C29.1741 17.437 28.2368 19.9779 27.3851 21.2266C27.3722 21.244 27.3551 21.2593 27.3337 21.2659C25.778 21.8029 23.5995 22.377 22.1443 22.377H22.1464ZM21.2476 11.7964C21.2348 13.056 21.1556 19.6876 20.8325 21.4034C20.7983 21.5846 20.8261 21.7264 20.9181 21.84C21.0936 22.0583 21.5194 22.1718 22.1464 22.1718C23.5652 22.1718 25.7009 21.6108 27.2396 21.0825C28.0613 19.8579 28.958 17.4239 28.4058 15.7715C28.1448 14.99 27.5841 14.453 26.7409 14.1736C26.6618 14.1823 26.5762 14.1867 26.4884 14.1867C24.7144 14.1867 21.9453 12.2919 21.2498 11.7942L21.2476 11.7964Z" fill="#B42129"/>
<g style="mix-blend-mode:multiply" opacity="0.5">
<path d="M27.5585 20.1766C27.0728 20.3949 26.5849 20.6241 26.0755 20.7878C25.4635 20.9864 24.3636 21.279 23.9762 20.5171C22.9105 18.4215 25.9493 15.8326 25.1489 13.8222C23.2765 13.1826 21.1472 11.6021 21.1472 11.6021C21.1472 11.6021 21.0851 19.5174 20.732 21.3881C20.4324 22.9751 24.4791 22.1478 27.3017 21.1742C27.5093 20.8686 27.7362 20.4582 27.9459 19.9889C27.8004 20.0609 27.6655 20.1329 27.5585 20.181V20.1766Z" fill="#06688E"/>
</g>
<path d="M20.6444 9.66154C20.6444 9.66154 15.0484 8.23174 12.6088 10.1461C10.1692 12.0584 2.92971 25.027 6.70247 27.3016C10.4774 29.5762 22.3371 21.2549 24.3786 15.6318C26.3003 10.3339 20.6422 9.66154 20.6422 9.66154H20.6444Z" fill="#F82C34"/>
<path d="M8.31152 27.7884C7.65027 27.7884 7.09174 27.653 6.65304 27.3889C5.98109 26.9829 5.60874 26.2363 5.54454 25.1689C5.2749 20.6568 10.6034 11.589 12.5487 10.0632C13.4089 9.38868 14.74 9.04596 16.5012 9.04596C18.624 9.04596 20.6484 9.55676 20.6698 9.56113C20.764 9.57204 23.2806 9.89074 24.3827 11.7266C25.0118 12.7744 25.0439 14.1016 24.4747 15.6689C22.6664 20.6525 13.15 27.7906 8.31366 27.7906L8.31152 27.7884ZM16.499 9.25115C14.7828 9.25115 13.4945 9.57859 12.6685 10.2269C10.7468 11.7353 5.47606 20.6983 5.74355 25.1558C5.80347 26.1512 6.14373 26.8432 6.75362 27.2121C7.16235 27.4588 7.68451 27.5832 8.30938 27.5832C13.0879 27.5832 22.4931 20.5259 24.2821 15.5969C24.8278 14.0907 24.8043 12.8268 24.2072 11.8357C23.1565 10.085 20.6549 9.7685 20.6292 9.76414C20.5971 9.75759 18.5941 9.25115 16.4969 9.25115H16.499Z" fill="#B42129"/>
<path d="M8.32004 27.6836C10.0748 23.9312 12.5978 20.6263 15.2856 17.5134C17.5497 14.8918 20.0021 12.4426 22.7413 10.3557C21.6991 9.78814 20.6463 9.66154 20.6463 9.66154C20.6463 9.66154 16.835 8.69014 14.1322 9.42578C12.4973 12.6892 10.7425 16.0422 9.42212 19.4628C8.41848 22.0648 7.081 24.3852 6.44971 27.1117C6.52889 27.1793 6.61234 27.2448 6.7065 27.2994C7.1452 27.5635 7.69517 27.6836 8.32218 27.6814L8.32004 27.6836Z" fill="#FEE06C"/>
<path d="M8.31147 27.7862C7.64808 27.7862 7.08954 27.653 6.65299 27.3889C6.56097 27.3321 6.47109 27.2667 6.38335 27.1903C6.35553 27.1641 6.34269 27.127 6.35125 27.0877C6.77069 25.2802 7.51112 23.6168 8.22801 22.008C8.60036 21.172 8.98556 20.3076 9.32795 19.4235C10.4664 16.4722 11.9344 13.558 13.3554 10.7421C13.5865 10.2858 13.8155 9.82962 14.0423 9.37776C14.0551 9.35157 14.0787 9.33192 14.1065 9.32537C14.787 9.13982 15.5938 9.04596 16.5076 9.04596C18.6283 9.04596 20.6505 9.55458 20.6698 9.56113C20.7019 9.56331 21.7419 9.69428 22.7884 10.264C22.8183 10.2815 22.8376 10.312 22.8419 10.347C22.844 10.3819 22.829 10.4168 22.8012 10.4365C20.3039 12.34 17.8707 14.6757 15.3605 17.5811C13.1221 20.1744 10.3081 23.6714 8.40991 27.7273C8.39279 27.7622 8.35855 27.7862 8.32003 27.7862H8.31147ZM6.55883 27.0746C6.62303 27.127 6.68723 27.1728 6.75357 27.2121C7.14732 27.45 7.65236 27.5723 8.25583 27.581C10.1625 23.5273 12.9723 20.0369 15.2086 17.4458C17.6845 14.5818 20.0877 12.2657 22.5508 10.371C21.5836 9.88201 20.642 9.76195 20.6313 9.76195C20.5992 9.7554 18.5983 9.25115 16.5033 9.25115C15.6259 9.25115 14.8512 9.33847 14.1964 9.51092C13.976 9.95187 13.7534 10.3928 13.5287 10.8359C12.1099 13.6497 10.644 16.5573 9.50985 19.4977C9.16745 20.3883 8.78012 21.2549 8.40777 22.0932C7.66948 23.7456 6.97399 25.3086 6.55883 27.0724V27.0746Z" fill="#B42129"/>
<path d="M9.24023 34.8391C9.24023 34.8391 14.297 35.3347 17.9756 34.3131C21.6542 33.2915 49.8633 21.6893 49.8633 21.6893C49.8633 21.6893 28.6776 35.1884 19.756 36.8016C15.5125 37.57 9.24023 34.8391 9.24023 34.8391Z" fill="#7C7F7D"/>
<path d="M18.1104 37.0417C14.0873 37.0417 9.24879 34.957 9.20171 34.9352C9.15677 34.9155 9.13109 34.8653 9.14393 34.8151C9.15677 34.7671 9.19957 34.7344 9.25093 34.7387C9.26377 34.7387 10.4921 34.8588 12.1506 34.8588C13.8091 34.8588 16.0368 34.7475 17.9499 34.217C21.5793 33.2107 49.5444 21.7133 49.8269 21.5977C49.874 21.578 49.9296 21.5977 49.9532 21.6457C49.9767 21.6937 49.9617 21.7505 49.9168 21.7788C49.8633 21.8116 44.5455 25.1951 38.2047 28.7336C32.3476 31.9992 24.3976 36.0703 19.7753 36.9042C19.2703 36.9959 18.7096 37.0417 18.1104 37.0417ZM9.88864 34.992C11.3096 35.5442 14.9668 36.8343 18.1104 36.8343C18.6968 36.8343 19.2446 36.7885 19.7389 36.699C23.3769 36.0419 29.7283 33.2238 38.1063 28.5502C42.8142 25.9242 46.9572 23.3833 48.7976 22.2372C43.5482 24.3896 21.2262 33.5163 18.0013 34.4135C16.0667 34.9505 13.7513 35.0618 12.1484 35.0618C11.2133 35.0618 10.4108 35.0247 9.8865 34.992H9.88864Z" fill="#202121"/>
<g style="mix-blend-mode:multiply">
<path d="M14.9453 35.4285C16.668 35.4089 18.38 35.2234 20.0256 34.682C21.8745 34.0773 23.6229 33.2216 25.4226 32.486C27.3957 31.6783 29.3452 30.8248 31.284 29.932C34.9776 28.2293 38.7225 26.6576 42.4054 24.9288C44.7701 23.8199 47.2011 22.8659 49.585 21.8029C46.6682 23.0013 21.4401 33.3504 17.9755 34.3131C15.6922 34.9461 12.876 34.9963 11.0698 34.9418C12.3131 35.339 13.6549 35.4416 14.9453 35.4264V35.4285Z" fill="#7C7F7D"/>
</g>
<path d="M22.9934 10.9385C22.9934 10.9385 14.5962 18.5394 9.41748 26.8454C9.41748 26.8454 17.6778 22.8943 21.7779 18.4172C25.8781 13.94 22.9934 10.9385 22.9934 10.9385Z" fill="#FEE06C"/>
<path d="M9.4177 26.9501C9.38988 26.9501 9.36206 26.937 9.3428 26.9152C9.31284 26.8803 9.30856 26.8301 9.33424 26.793C14.4616 18.57 22.8439 10.9407 22.9273 10.8643C22.968 10.8294 23.0279 10.8294 23.0664 10.8687C23.0964 10.8992 25.9725 13.9924 21.8531 18.4892C17.785 22.9292 9.54396 26.9021 9.46264 26.9414C9.4498 26.948 9.43482 26.9501 9.41984 26.9501H9.4177ZM22.9851 11.0848C22.1484 11.8553 14.5579 18.9301 9.6959 26.5965C11.2559 25.8172 18.121 22.2634 21.7054 18.3473C23.3596 16.5399 24.0936 14.6975 23.824 13.0167C23.6592 11.9798 23.1627 11.3009 22.9851 11.0848Z" fill="#B42129"/>
<path d="M12.8546 10.526C12.8546 10.526 8.08456 19.4213 6.64008 26.3738C6.64008 26.3738 5.2598 19.5392 12.8546 10.526Z" fill="#FEE06C"/>
<path d="M6.63995 26.4764C6.59287 26.4764 6.55007 26.4415 6.54151 26.3935C6.52867 26.3236 5.23612 19.406 12.7774 10.4583C12.8116 10.419 12.8694 10.4124 12.9122 10.4408C12.955 10.4714 12.9678 10.5281 12.9422 10.574C12.8951 10.6635 8.1636 19.537 6.73838 26.3935C6.72982 26.4415 6.68703 26.4743 6.63995 26.4743V26.4764ZM12.3216 11.3358C6.71057 18.3582 6.55007 23.9748 6.67205 25.7605C7.94533 20.2377 11.1446 13.6541 12.3216 11.3358Z" fill="#B42129"/>
<g style="mix-blend-mode:multiply">
<path d="M19.677 21.2222C18.3288 22.163 16.9336 23.0471 15.4506 23.75C14.7765 24.0687 14.096 24.3699 13.409 24.6559C13.0281 24.8131 12.5145 25.1885 12.0758 25.1885C11.329 25.1885 11.6136 24.1975 11.7976 23.8067C12.339 22.6542 12.9318 21.4907 13.5909 20.4036C15.0311 18.0242 17.9222 15.1996 19.6128 12.9992C17.9907 14.2129 15.6175 16.9 14.2886 18.4193C13.1437 19.7269 10.3168 22.9925 8.61336 24.9113C7.79803 25.8259 7.2395 26.4371 7.24164 26.3782C7.3251 24.263 9.73899 19.7837 10.3532 17.7732C10.687 16.6839 11.0444 15.6056 11.4681 14.5491C11.7334 13.8898 12.0566 13.2611 12.2984 12.5975C11.0272 14.0339 10.2162 15.9286 9.47577 17.6772C8.4657 20.0587 7.62898 22.5123 6.71307 24.9309C6.66599 25.0576 6.47553 25.1187 6.40277 24.9724C6.05396 24.2521 5.92556 23.5033 5.90202 22.7393C5.42267 24.8567 5.5318 26.5965 6.70451 27.3038C9.58491 29.0392 17.1754 24.6035 21.5152 19.9081C20.9032 20.3665 20.2848 20.8031 19.6791 21.2244L19.677 21.2222Z" fill="#B5B5B5"/>
</g>
<path d="M21.0059 22.9969C21.0059 22.9969 20.2868 24.824 21.513 24.4704C22.7392 24.1167 48.7891 14.1627 48.7891 14.1627L22.7392 23.4684C22.7392 23.4684 21.0957 24.0098 21.0059 22.9969Z" fill="#C4C0B8"/>
<g style="mix-blend-mode:screen" opacity="0.6">
<path d="M8.39502 23.3505C8.43354 23.2327 14.2329 10.0719 14.4811 9.68118C14.7293 9.29044 18.5642 9.28826 20.7961 10.0152C20.7961 10.0152 15.2044 9.42142 14.5945 10.526C13.9012 11.7833 8.39502 23.3505 8.39502 23.3505Z" fill="white"/>
</g>
</g>
<defs>
<clipPath id="clip0_46_895">
<rect width="54" height="38" fill="white"/>
</clipPath>
</defs>
</svg>
