<svg width="45" height="46" viewBox="0 0 45 46" fill="none" xmlns="http://www.w3.org/2000/svg">
<circle cx="22.5" cy="23" r="22.5" fill="#488CFE"/>
<path d="M29.9401 24C29.7201 24 29.4901 23.93 29.2701 23.88C28.8246 23.7818 28.3868 23.6515 27.9601 23.49C27.4962 23.3212 26.9862 23.33 26.5284 23.5146C26.0706 23.6992 25.6972 24.0466 25.4801 24.49L25.2601 24.94C24.2861 24.3982 23.3911 23.7252 22.6001 22.94C21.8149 22.149 21.1419 21.254 20.6001 20.28L21.0201 20C21.4635 19.7829 21.8109 19.4095 21.9955 18.9517C22.1801 18.4938 22.1889 17.9839 22.0201 17.52C21.8613 17.0924 21.731 16.6548 21.6301 16.21C21.5801 15.99 21.5401 15.76 21.5101 15.53C21.3887 14.8256 21.0197 14.1877 20.4697 13.7312C19.9197 13.2747 19.2248 13.0296 18.5101 13.04H15.5101C15.0791 13.0359 14.6524 13.1248 14.2588 13.3005C13.8653 13.4762 13.5142 13.7347 13.2295 14.0583C12.9449 14.3819 12.7332 14.763 12.6091 15.1757C12.4849 15.5884 12.4512 16.023 12.5101 16.45C13.0428 20.6394 14.9561 24.5319 17.9478 27.5126C20.9394 30.4934 24.8388 32.3925 29.0301 32.91H29.4101C30.1475 32.9111 30.8595 32.6405 31.4101 32.15C31.7265 31.867 31.9792 31.5202 32.1516 31.1323C32.3239 30.7444 32.4121 30.3244 32.4101 29.9V26.9C32.3979 26.2054 32.1449 25.5365 31.6944 25.0077C31.244 24.4788 30.6239 24.1226 29.9401 24ZM30.4401 30C30.4399 30.142 30.4095 30.2823 30.3509 30.4116C30.2923 30.5409 30.2068 30.6563 30.1001 30.75C29.9884 30.8465 29.8577 30.9185 29.7165 30.9616C29.5753 31.0046 29.4267 31.0177 29.2801 31C25.535 30.5198 22.0563 28.8065 19.3928 26.1303C16.7293 23.4541 15.0325 19.9673 14.5701 16.22C14.5542 16.0735 14.5681 15.9253 14.6111 15.7844C14.6541 15.6434 14.7252 15.5127 14.8201 15.4C14.9138 15.2933 15.0292 15.2078 15.1585 15.1492C15.2878 15.0906 15.4281 15.0602 15.5701 15.06H18.5701C18.8026 15.0548 19.0297 15.1309 19.2122 15.2751C19.3948 15.4193 19.5213 15.6226 19.5701 15.85C19.6101 16.1233 19.6601 16.3933 19.7201 16.66C19.8356 17.1871 19.9894 17.7052 20.1801 18.21L18.7801 18.86C18.6604 18.9149 18.5527 18.9929 18.4633 19.0896C18.3738 19.1862 18.3043 19.2996 18.2588 19.4232C18.2132 19.5468 18.1926 19.6781 18.1979 19.8097C18.2033 19.9413 18.2346 20.0705 18.2901 20.19C19.7293 23.2727 22.2073 25.7508 25.2901 27.19C25.5336 27.29 25.8066 27.29 26.0501 27.19C26.1748 27.1454 26.2894 27.0764 26.3873 26.9872C26.4851 26.8979 26.5643 26.7901 26.6201 26.67L27.2401 25.27C27.7571 25.4549 28.2847 25.6085 28.8201 25.73C29.0868 25.79 29.3568 25.84 29.6301 25.88C29.8575 25.9288 30.0608 26.0553 30.205 26.2378C30.3492 26.4204 30.4253 26.6474 30.4201 26.88L30.4401 30Z" fill="white"/>
</svg>
